<svg xmlns="http://www.w3.org/2000/svg" width="100" height="99" fill="transparent" viewBox="0 0 99 99"><path style="stroke:none;fill-rule:nonzero;fill-opacity:1" d="M99.05 37.137V99.05h-99v-99h99zM2.478 67.852q.024.086.054.168s-.004 0-.008.043c.051.226.094.46.157.687.234.824.472 1.648.707 2.516.343 1 .656 2.011 1.035 2.996.289.765.637 1.511 1.004 2.246.601 1.215 1.3 2.37 2.187 3.441q.042.043.082.078s-.004 0 .004.035c.946 1.157 2.04 2.141 3.317 2.918 1.07.657 2.226 1.122 3.433 1.454.906.246 1.82.449 2.735.68 1.18.3 2.359.6 3.535.91 1.3.34 2.488.94 3.672 1.554 1.566.813 3.109 1.676 4.695 2.45a41.7 41.7 0 0 0 8.086 2.949c1.11.28 2.226.554 3.351.773.934.184 1.883.3 2.829.418q1.453.177 2.914.3c.601.048 1.21.044 1.847.087q1.284.01 2.567.011c.027 0 .058-.023.133-.039.671-.035 1.343-.054 2.011-.105.899-.074 1.801-.164 2.7-.262a34 34 0 0 0 4.331-.754c1.192-.297 2.387-.586 3.567-.918A44.5 44.5 0 0 0 77.29 85.75c1.078-.777 2.086-1.637 2.934-2.676.898-1.105 1.453-2.39 1.93-3.719.425-1.183.82-2.382 1.327-3.527.813-1.828 2.04-3.39 3.352-4.875 1.309-1.484 2.656-2.933 3.95-4.43 1.554-1.808 2.812-3.793 3.597-6.074.414-1.207.7-2.437.883-3.691.074-.5.097-1.004.164-1.516 0-.008.008-.012.008-.015-.008-.012-.016-.02-.024-.079 0-.441 0-.882.024-1.34a.6.6 0 0 1-.032-.128c-.015-.082-.043-.164-.043-.246-.046-1.434-.324-2.832-.675-4.215-.18-.703-.36-1.407-.559-2.106-.738-2.586-1.668-5.12-2.121-7.785-.137-.805-.281-1.605-.395-2.41-.09-.652-.132-1.309-.207-1.961-.199-1.805-.394-3.61-.609-5.41a40 40 0 0 0-.387-2.637c-.164-.87-.383-1.734-.59-2.597-.07-.286-.191-.56-.285-.872q-.52-1.634-1.363-3.128c-.563-1-1.227-1.922-2.008-2.758-1.426-1.532-3.097-2.758-4.914-3.758-2.484-1.367-5-2.676-7.527-3.957-2.16-1.094-4.352-2.137-6.625-2.98-1.66-.618-3.348-1.18-5.04-1.712-.855-.27-1.745-.421-2.632-.66a16 16 0 0 0-.48-.066c-.02-.004-.044-.008-.079-.047-.148-.016-.297-.027-.48-.05-.02-.005-.043-.005-.074-.044a15 15 0 0 0-.586-.062.2.2 0 0 1-.125-.047c-.2-.02-.399-.04-.637-.055a.4.4 0 0 1-.176-.05c-.265-.016-.531-.036-.844-.051-.101-.008-.203-.016-.32-.059-.121-.023-.242-.066-.363-.066-.434 0-.867.011-1.344.023a6 6 0 0 1-.7-.031c-.386-.004-.773-.024-1.16-.008-.195.012-.386.086-.62.137-.036 0-.075 0-.141-.028-.254-.011-.512-.07-.773.125a.5.5 0 0 1-.188-.02c-.11.028-.219.056-.371.087-.102 0-.203-.012-.3.008-.411.078-.817.164-1.224.246-.78.164-1.566.316-2.343.488-.742.164-1.48.363-2.223.527-.617.137-1.242.239-1.863.364-.36.074-.715.164-1.11.238l-.503.098c-.024.003-.043.003-.094-.02l-.57.125c-.04 0-.075 0-.141-.027l-.672.125a.45.45 0 0 1-.191-.024l-1 .043c-.032.004-.059.051-.133.082a8 8 0 0 1-.328.008c-.012 0-.02.004-.075.004-.98 0-1.96.004-2.98-.004h-.16a2.4 2.4 0 0 1-.465-.043c-.066.004-.133.012-.246.012-.153-.004-.305-.004-.5-.02a4 4 0 0 1-.438-.031c-.148.004-.297.008-.476.016-.031 0-.063 0-.11-.028q-.076.011-.16.028s.004.007-.043.007c-.758 0-1.515-.003-2.293-.023a.2.2 0 0 1-.105-.04c-.067.02-.13.04-.215.063 0 0-.016.008-.055.012-.039 0-.078 0-.152-.004l-.113.016q-.612.071-1.223.137a15 15 0 0 0-3.105.703c-1.704.566-3.313 1.336-4.86 2.246-2.738 1.605-5.219 3.558-7.496 5.758a67 67 0 0 0-3.223 3.37c-1.578 1.762-2.949 3.68-3.914 5.852-.398.903-.703 1.848-1.035 2.778-.265.738-.363 1.511-.453 2.32.004.094.008.184.012.316a.6.6 0 0 1-.04.223q-.012.615-.019 1.23c0 .016.035.032.059.086 0 .067.004.133-.016.23.008.095.02.184.024.321.004.078-.004.156.007.227.176.945.356 1.886.528 2.828.086.473.152.953.226 1.473.004.05-.004.101.008.148.04.21.086.418.137.672 0 .086.004.172-.024.289.008.226.016.453.028.719a.8.8 0 0 1-.047.273c-.031.234-.066.469-.098.746A14 14 0 0 1 3.43 42.2c-.672 1.8-1.434 3.577-1.914 5.45-.203.8-.364 1.613-.496 2.43-.122.75-.176 1.51-.286 2.292.008.063.016.121.024.227-.008.117-.012.234-.051.37l-.012.852c0 .133-.004.27-.039.422l-.023 1.48c0 .012.039.028.062.087 0 .082 0 .168-.023.285.012.21.023.418.035.676.082.968.168 1.937.223 2.937.039.195.074.39.12.625a.5.5 0 0 1-.019.188l.125.617c0 .023 0 .043-.023.093l.125.575c0 .035 0 .074-.02.129.008.043.02.09.028.175q.13.652.254 1.305c.136.707.257 1.418.402 2.121.148.715.316 1.422.469 2.164q.043.064.09.117s-.004-.004-.004.036m0 0"/><path style="stroke:none;fill-rule:nonzero;fill:#f7b658;fill-opacity:1" d="M39.617 6.25h.153c.214-.031.386-.066.558-.102h.102c.195-.03.351-.062.508-.093.355-.082.71-.172 1.07-.246.62-.125 1.246-.227 1.863-.364.742-.164 1.48-.363 2.223-.527.777-.172 1.562-.324 2.343-.488.407-.082.813-.168 1.223-.246.098-.02.2-.008.34-.004.145-.016.25-.04.36-.067.054 0 .105 0 .199-.004.28-.03.523-.062.765-.097h.153c.52-.016 1-.035 1.48-.059.098-.004.195-.027.29-.043.222 0 .444.004.706.016.586.027 1.137.047 1.684.066.101.008.203.016.343.035.297.032.56.055.82.075.055.003.106.011.196.027.227.035.422.055.617.078.035.004.07.008.14.023.212.04.388.063.563.086.024.004.047.004.094.028.176.035.32.05.469.066.02.004.043.008.094.027a6 6 0 0 0 .46.086c.876.204 1.766.356 2.622.625 1.691.532 3.379 1.094 5.039 1.711 2.273.844 4.465 1.887 6.625 2.98a251 251 0 0 1 7.527 3.958c1.817 1 3.488 2.226 4.914 3.758a14.2 14.2 0 0 1 2.008 2.758 16 16 0 0 1 1.363 3.171c-.023.524-.035 1.004-.058 1.485-.067 1.12-.133 2.246-.215 3.383-.09.859-.168 1.703-.238 2.55a9 9 0 0 0-.032.707c0 1.168.008 2.336.008 3.504 0 .008.008.016.008.024.016.304.027.605.043.949-.098-.106-.16-.176-.227-.238-.449-.461-.93-.567-1.515-.313-.528.227-.961.594-1.32 1.04-.422.53-.825 1.085-1.239 1.624-.57.746-1.324 1.235-2.187 1.57-1.012.395-2.075.485-3.141.512-.863.02-1.73-.07-2.594-.086-.511-.008-1.027.043-1.539.043a7.4 7.4 0 0 0-2.277.364c-.336.105-.653.257-.977.39q.011.038.028.074c.105-.015.21-.035.32-.046.676-.075 1.348-.18 2.023-.211a16 16 0 0 1 2.02.05c.808.075 1.617.176 2.41.336.715.14 1.41.383 2.113.57.567.157 1.149.25 1.7-.003.335-.157.66-.371.93-.625.484-.446.913-.95 1.378-1.414.45-.45.973-.739 1.637-.707.504.027.91.285 1.308.547.684.453 1.352.937 2.02 1.417a.7.7 0 0 1 .227.317c.12.348.203.71.312 1.062.242.774.496 1.54.73 2.313.56 1.828 1.137 3.656 1.45 5.547.136.836.234 1.687.27 2.535.03.738-.028 1.484-.094 2.223-.098 1.066-.399 2.082-.829 3.058-.355.813-.777 1.59-1.336 2.281-.585.72-1.168 1.442-1.789 2.125-.468.52-.996.989-1.504 1.473-.503.48-1.035.941-1.527 1.438-.914.93-1.82 1.859-2.703 2.816-.824.894-1.422 1.96-2.117 2.953-.45.64-.91 1.281-1.43 1.86-1.031 1.148-2.426 1.539-3.89 1.753-.864.125-1.731.246-2.547.575-.805.328-1.454.847-1.914 1.613-.41.683-.633 1.43-.852 2.18-.266.921-.5 1.851-.797 2.761-.289.871-.82 1.602-1.527 2.188-.957.797-2.063 1.355-3.215 1.812a21 21 0 0 1-3.293 1.008c-.961.207-1.93.36-2.906.41-1.051.055-2.11.035-3.157-.05-.859-.07-1.71-.247-2.546-.446a56 56 0 0 1-3.278-.89c-.972-.286-1.93-.641-2.906-.926a61 61 0 0 0-3.406-.899c-.824-.183-1.668-.336-2.508-.363-1.133-.039-2.273.023-3.406.094-.867.054-1.727.219-2.598.285-.887.066-1.777.094-2.672.102a7 7 0 0 1-1.297-.126c-.59-.109-1.18-.246-1.715-.535-.445-.238-.906-.46-1.296-.765-.504-.39-.93-.875-1.418-1.29-.262-.222-.461-.445-.508-.8-.086-.692-.11-.899.562-1.106.875-.27 1.754-.53 2.64-.754.638-.164 1.071-.53 1.263-1.148.359-1.148.703-2.3 1.02-3.465.218-.808.382-1.633.562-2.457.086-.398.152-.8.226-1.199-.05.02-.074.047-.086.082-.218.691-.425 1.387-.652 2.074a48 48 0 0 1-.691 1.942c-.192.504-.407.996-.622 1.488-.242.558-.585 1.047-1.078 1.402-.582.418-1.27.567-1.953.711-.418.09-.847.149-1.25.281a3 3 0 0 0-1.46 1.032c-.114.144-.227.187-.407.086a5 5 0 0 0-.797-.368c-1.285-.46-2.625-.62-3.973-.722-.644-.047-1.293-.07-1.937-.102-.98-.05-1.965-.094-2.945-.16-.465-.031-.942-.066-1.395-.172a27 27 0 0 1-1.98-.57c-.953-.305-1.809-.813-2.621-1.383-1.114-.785-2.075-1.742-2.938-2.816a1 1 0 0 0-.098-.106c-.011-.023-.023-.031-.043-.055-.289-.433-.578-.847-.859-1.265a14 14 0 0 1-1.375-2.563c-.18-.445-.34-.894-.512-1.34 0 0 .004 0 .004-.019a3 3 0 0 0-.054-.187s.003.003.003-.012a1 1 0 0 0-.082-.133c-.16-.711-.328-1.418-.476-2.133-.145-.703-.266-1.414-.402-2.12-.083-.435-.168-.872-.243-1.337.004-.078-.007-.121-.015-.164-.004-.035-.004-.074-.004-.148a10 10 0 0 0-.102-.563v-.105c-.031-.227-.066-.418-.101-.61v-.199c-.032-.23-.067-.422-.098-.613-.082-.969-.168-1.938-.234-2.942 0-.25-.012-.464-.028-.675 0-.082 0-.168.004-.293 0-.547-.004-1.047-.008-1.543 0-.133.004-.27.012-.446.016-.304.027-.566.04-.828.003-.117.007-.234.027-.386a1 1 0 0 0-.012-.215c.086-.758.14-1.52.262-2.27.132-.816.293-1.629.496-2.43.48-1.87 1.242-3.648 1.914-5.449a15 15 0 0 0 .742-2.86c.05-.265.086-.5.117-.734.004-.085.008-.171.024-.292.003-.262-.004-.489-.012-.715 0-.086-.004-.172-.004-.301.004-.121.016-.2 0-.27-.04-.187-.094-.367-.14-.55-.079-.477-.145-.957-.231-1.43-.172-.942-.352-1.883-.528-2.828a1 1 0 0 1 .008-.262c.004-.129-.008-.223-.015-.312-.004-.07-.008-.137-.004-.247 0-.46-.004-.878-.012-1.296.004-.067.008-.133.023-.23.008-.126 0-.22-.003-.313.066-.782.164-1.555.43-2.293.331-.93.636-1.875 1.034-2.778.965-2.172 2.336-4.09 3.914-5.851a67 67 0 0 1 3.223-3.371c2.277-2.2 4.758-4.153 7.496-5.758 1.547-.91 3.156-1.68 4.86-2.246a15 15 0 0 1 3.105-.703c.406-.043.816-.09 1.254-.13.059 0 .09-.007.121-.015a.5.5 0 0 1 .14.008c.09.004.153-.004.223-.012h.055a.4.4 0 0 0 .09-.015c.758 0 1.515.003 2.312.02.434.01.832.007 1.23.003.153.004.306.004.497.02.098.011.156.007.219.007.152.004.3.008.488.028a.7.7 0 0 0 .164-.008c.98 0 1.96-.004 2.969.004.043.004.058 0 .07-.008a8 8 0 0 1 .352-.008c.402-.031.757-.066 1.117-.101h.199c.25-.036.457-.067.66-.102M25.855 59.129l.301-.23c1.14-.883 1.535-2.051 1.246-3.442-.238-1.164-.746-2.23-1.343-3.246-1.032-1.754-2.442-2.992-4.52-3.324.035-.121.059-.246.106-.364.332-.843.296-1.73.226-2.597-.09-1.063-.422-2.078-.773-3.078a4.4 4.4 0 0 0-1.223-1.856c-.395-.351-.867-.5-1.375-.36a1.8 1.8 0 0 0-1.105.864c-.352.64-.676 1.3-.985 1.961-.348.746-.758 1.422-1.473 1.879-.98.625-2.082.86-3.199 1.062-.992.18-1.992.329-2.945.704-1.48.586-2.41 1.699-3.055 3.097-.222.489-.406 1-.574 1.512-.234.707-.476 1.422-.64 2.148-.188.828-.31 1.672-.422 2.512-.094.672-.184 1.356-.188 2.031a53 53 0 0 0 .098 3.344c.031.617.176 1.23.504 1.754.28.445.652.836 1.007 1.227.399.433.875.808 1.09 1.378.145.383.223.793.324 1.192.098.375.434.664.747.652.34-.008.62-.16.847-.39.434-.442.508-.989.36-1.57-.18-.72-.407-1.427-.551-2.153a23 23 0 0 1-.324-2.316c-.04-.454.007-.915.043-1.368.054-.699.125-1.386.48-2.023.395-.703.973-1.055 1.766-1.102.797-.05 1.543.207 2.308.332.79.133 1.575.254 2.38.13.577-.09 1.132-.235 1.593-.622.176-.148.34-.304.535-.441.57.426 1.113.879 1.707 1.265.934.606 1.875 1.2 2.645 2.028.715.77 1.554.922 2.496.449a16 16 0 0 1 1.312-.61c.137.708.524 1.262 1.16 1.563.418.2.649.645.497 1.152-.266.88-.766 1.606-1.524 2.145-.816.582-1.719.844-2.71.746-.368-.035-.75-.121-1-.422a4.5 4.5 0 0 1-.493-.781c-.363-.68-1.023-.922-1.676-1.176-.476-.187-.957-.36-1.437-.543-.532-.203-1.063-.418-1.598-.613-.426-.152-.812-.047-1.145.254-.472.433-.964.847-1.398 1.32a7.3 7.3 0 0 0-.895 1.246c-.406.684-.503 1.477-.695 2.235-.004.027.028.062.055.117.226-.672.605-1.2 1.098-1.649.726-.66 1.585-1 2.558-1.054.543-.028 1.078.023 1.586.215.5.19.953.449 1.266.914.347.52.484 1.109.625 1.695.168.687.406 1.32 1.023 1.742.406.281.836.395 1.297.16.137-.07.238-.207.36-.312.308-.282.562-.254.785.101.054.082.093.18.128.274.09.242.168.492.274.73.113.246.324.36.598.39.472.055.964-.378 1.156-.835.32-.754.61-1.524 1.105-2.18.356-.465.723-.941 1.164-1.316.84-.711 1.317-1.543 1.121-2.66-.222-1.29-.855-2.344-1.906-3.137a6.3 6.3 0 0 1-.805-.75m3.036-25.184a4.9 4.9 0 0 0 1.797-.96c1.214-1.012 1.71-2.305 1.417-3.868-.21-1.125-.94-1.855-1.953-2.305-.98-.43-1.972-.835-2.965-1.238-.804-.32-1.609-.66-2.437-.91-.79-.238-1.617-.273-2.41.035-2.176.844-3.75 3.262-3.64 5.61.058 1.261.62 2.214 1.866 2.625.961.316 1.934.597 2.914.832.778.187 1.57.285 2.387.441a.7.7 0 0 1 .176.008 55 55 0 0 1 1.602.004c.09-.016.18-.032.312-.047.273-.067.547-.129.848-.195a.4.4 0 0 1 .086-.032m22.082 32.508c-.34.031-.676.059-1.035.07a1 1 0 0 1-.141.047c-.067.004-.129.012-.215 0a.6.6 0 0 1-.121.04c-.156.027-.313.054-.492.081-.016.004-.032.012-.078.028-.051.008-.102.02-.184.023a.6.6 0 0 1-.121.04c-.527.156-1.063.28-1.574.472-2.13.808-3.797 2.156-4.77 4.262-.465 1-.742 2.054-.52 3.156.387 1.93 1.395 3.492 2.95 4.687.824.633 1.758.868 2.793.66 1.472-.296 2.808-1.5 3.02-3.074.081-.632.144-1.265.269-1.89.156-.766.656-1.25 1.402-1.45.473-.125.953-.218 1.434-.304 2.07-.36 3.129-2.489 2.496-4.465-.477-1.48-2.27-2.258-3.656-2.32-.032 0-.059.004-.125-.02-.41-.016-.82-.031-1.262-.05-.008.003-.016.007-.07.007m-24.07-53.762c.062-.39.136-.777.183-1.168.039-.32.098-.656-.238-.87-.285-.176-.602-.15-.907-.094-.78.144-1.414.582-1.964 1.117-.793.765-1.543 1.578-2.317 2.363-.82.832-1.765 1.504-2.719 2.164-.418.29-.828.582-1.25.856-.535.351-1.086.671-1.62 1.023-.598.39-1.18.805-1.778 1.195a20.4 20.4 0 0 0-3.07 2.45c-.38.367-.73.77-1.106 1.164-.207-.258-.394-.106-.555.047-.234.222-.449.472-.683.703-.395.394-.652.875-.875 1.375-.367.84-.563 1.718-.676 2.629-.125 1.015-.094 2.023-.023 3.035.054.863.183 1.722.238 2.586.047.757.066 1.523.047 2.28-.012.497-.09.99-.168 1.481-.156.973-.602 1.856-.945 2.766-.239.621-.422 1.246-.395 1.918.031.71.356 1.266.973 1.605.715.395 1.468.368 2.21.055.9-.379 1.563-1.047 2.169-1.785.629-.77 1.203-1.57 1.632-2.473.309-.656.63-1.297.844-1.996.238-.785.469-1.562.535-2.383.09-1.14.196-2.28.301-3.418.031-.37.059-.742.133-1.101.117-.586.246-1.172.426-1.738.172-.547.379-1.094.64-1.606a10.8 10.8 0 0 1 1.598-2.324 36 36 0 0 1 1.945-2.004c.469-.45.985-.844 1.489-1.25.464-.371.957-.711 1.421-1.086.461-.367.899-.758 1.352-1.137.7-.59 1.34-1.242 1.766-2.058.324-.625.64-1.27.851-1.942.242-.758.363-1.554.535-2.379m20.774 8.754c.015-.183.054-.37.047-.554-.012-.356-.262-.633-.59-.637-.285-.004-.59-.02-.848.074-.82.29-1.62.629-2.43.95-.37.144-.738.32-1.125.421-.445.117-.902.18-1.37.09a2.95 2.95 0 0 1-1.446-.723c-.457-.398-.789-.902-.887-1.496-.12-.718-.148-1.453-.218-2.183q-.077-.81-.715-1.313c-.739-.582-1.606-.613-2.477-.539a2.7 2.7 0 0 0-.96.281c-.423.215-.829.48-1.204.77-.605.469-.945 1.129-1.168 1.848-.097.312-.137.64-.215.957-.168.64-.547.879-1.21.816-.204-.02-.43-.008-.61.07-.406.18-.54.563-.555.973-.047.95.305 1.758.957 2.422.66.676 1.485 1.117 2.297 1.578.547.309 1.086.648 1.574 1.04.497.398.809.956.727 1.612a14 14 0 0 1-.402 1.946c-.305 1.109-.106 2.054.738 2.859.816.781 2.144.785 3.055.191.59-.382.933-.964 1.164-1.582.445-1.191 1.035-2.273 2.004-3.105a7.7 7.7 0 0 1 1.23-.863c.516-.29 1.07-.512 1.602-.77.945-.46 1.617-1.195 2.097-2.113.492-.934.782-1.934.938-3.02m3.426-13.511a14 14 0 0 0-3.215-.543c-1.469-.067-2.942-.047-4.383.34-1.106.296-2.133.71-2.941 1.566a3.36 3.36 0 0 0-.93 2.289c-.016.664.082 1.328.148 1.988.067.645.157 1.285.246 1.926.094.648.149 1.309.313 1.941.25.961.8 1.457 1.84 1.575 1.078.125 2.03-.258 2.832-.965a28 28 0 0 0 1.742-1.692 8.4 8.4 0 0 1 2.531-1.816 22 22 0 0 1 2.121-.844 93 93 0 0 1 3.082-1.011c1.149-.364 2.336-.45 3.532-.477 1.62-.035 3.25.129 4.843-.309.563-.156 1.114-.343 1.582-.695.29-.219.47-.523.442-.89-.055-.715-.48-1.22-1.032-1.602-.84-.582-1.812-.793-2.808-.817-.692-.015-1.39.059-2.082.145-.922.113-1.832.309-2.754.41-.719.078-1.457.152-2.164.07-.977-.117-1.938-.382-2.945-.59m34.226 42.2c.016-.598-.027-1.192-.238-1.75-.715-1.899-2.086-3.086-4.031-3.547-1.04-.246-2.067-.102-2.93.64a3.93 3.93 0 0 0-1.2 1.766c-.327 1.004-.593 2.031-.85 3.055-.227.879-.466 1.75-.845 2.578-.437.95-1.152 1.648-1.949 2.3-.71.579-.86 1.27-.547 2.134.59 1.62 1.832 2.41 3.465 2.605 1.352.16 2.586-.285 3.719-.992 1.816-1.133 3.18-2.692 4.172-4.582.683-1.297 1.16-2.668 1.234-4.207m-21.355-24.18c1.41-.715 2.25-1.84 2.343-3.441.082-1.328-.375-2.469-1.39-3.348-.649-.562-1.344-1.07-1.93-1.715a11.5 11.5 0 0 0-1.32-1.219c-1.211-.949-2.598-1.289-4.106-1.015-1.18.215-2.14 1.023-2.21 2.441-.02.414.007.832-.04 1.246-.062.598-.129 1.203-.277 1.785-.137.54-.387 1.047-.582 1.57-.277.743-.586 1.477-.559 2.298.028.738.508 1.363 1.235 1.437.425.047.875 0 1.297-.086.93-.195 1.855-.238 2.785-.058.613.113 1.222.246 1.832.375.988.21 1.957.183 2.922-.27m4.93 6.281c.077.028.156.055.23.09.949.446 1.937.63 2.988.496.871-.113 1.625-.441 2.215-1.11.86-.976 1.012-2.206.402-3.304-.308-.554-.195-1.125.211-1.543.309-.312.68-.484 1.078-.636.618-.235 1.254-.446 1.82-.778.45-.262.86-.637 1.18-1.047.508-.652.653-1.425.578-2.265-.078-.942-.453-1.746-.992-2.477-.535-.726-1.25-1.293-2.043-1.7a35 35 0 0 0-3.28-1.495c-1.02-.402-2.075-.715-3.13-1.024a8.7 8.7 0 0 0-3.39-.273c-.036 0-.063.039-.118.078.075.04.121.074.172.09.442.129.883.27 1.332.383 1.281.328 2.578.625 3.813 1.12.867.345 1.691.763 2.328 1.474.707.789.937 1.71.613 2.722-.285.887-.957 1.488-1.648 2.063q-.804.674-1.59 1.367c-.461.41-.41.773-.176 1.281q.359.78.766 1.535c.492.899.664 1.856.488 2.86-.129.73-.527 1.297-1.18 1.644-.515.277-1.074.375-1.672.328a5 5 0 0 1-1.62-.43c-.317-.14-.63-.296-.942-.445q-.024.037-.047.078c.527.297 1.055.598 1.613.918M47.668 63.348c-.191.062-.379.14-.574.187-.969.23-1.946.434-2.91.684-.43.11-.856.27-1.246.469a7 7 0 0 0-1.536 1.082c-.777.703-1.347 1.543-1.562 2.558-.133.652-.078 1.348-.121 2.02-.016.242-.07.48-.106.722-.047.348-.12.696-.136 1.047-.02.371.273.723.628.82.133.036.25.036.278-.156.039-.312.101-.625.148-.941.094-.672.39-1.27.742-1.836a7.6 7.6 0 0 1 1.676-1.906 8.5 8.5 0 0 1 3.18-1.649c.93-.254 1.875-.445 2.824-.62a14 14 0 0 1 1.82-.192c.461-.028.93-.016 1.387.05a14 14 0 0 1 1.813.391c.425.121.82.34 1.234.5.559.215.867-.066.977-.601a2.04 2.04 0 0 0-.23-1.41c-.505-.915-1.212-1.649-2.134-2.13a3.45 3.45 0 0 0-2.53-.273c-.872.238-1.724.55-2.583.832-.332.11-.664.23-1.039.352m7.344-21.555c.066-.047.133-.102.207-.145.527-.296.57-1.136.304-1.601a3.9 3.9 0 0 0-.828-1.031c-.48-.414-1.039-.696-1.62-.895a5.64 5.64 0 0 0-2.677-.23c-.765.113-1.445.414-2.086.82-.62.394-1.093.934-1.5 1.547-.468.71-.8 1.496-.835 2.328-.043.988.074 1.984.136 2.98a4 4 0 0 1-.175 1.536c-.126.367-.211.761-.098 1.14.23.758.972 1.098 1.707.922.496-.117.89-.43 1.016-.984.085-.39-.04-.754-.176-1.106-.235-.605-.465-1.203-.414-1.879a3.85 3.85 0 0 1 .812-2.11 3.76 3.76 0 0 1 1.61-1.183c.859-.34 1.722-.359 2.609-.113.652.184 1.312.309 2.008.004m5.277 6.172c-.113-1.008-.652-1.762-1.414-2.375-.98-.793-2.133-1.223-3.316-1.586a11.4 11.4 0 0 0-2.57-.473c-.798-.054-1.575-.031-2.333.25-.968.356-1.703 1.535-1.297 2.676.286.797.778 1.379 1.618 1.555.55.117 1.117.156 1.68.203.695.062 1.35.222 1.91.656.398.309.78.645 1.156.984.492.442.98.883 1.597 1.149.559.238 1.13.36 1.72.137.718-.27 1.265-1.145 1.257-1.985-.004-.383 0-.761-.008-1.191m9.246 10.441c.36.496.766.942 1.281 1.274.371.238.782.328 1.223.242.23-.043.54-.324.559-.531.05-.508-.028-.977-.422-1.344-.309-.285-.63-.567-.914-.875-.258-.277-.469-.586-.485-.996-.03-.805.375-1.395.946-1.871.582-.489 1.222-.895 1.816-1.364.582-.464.973-1.074 1.09-1.824.074-.465.117-.933.172-1.398.086-.711-.04-1.383-.406-1.989-.149-.242-.383-.433-.692-.468-.887-.098-1.46.308-1.875 1.043-.34.61-.433 1.304-.652 1.953-.145.433-.309.887-.57 1.25-.34.465-.786.855-1.192 1.27-.73.745-1.11 1.636-1.062 2.69.015.298.078.602.152.891a5.3 5.3 0 0 0 1.031 2.047M29.5 35.856c-.082.027-.164.042-.242.078-1.098.496-2.25.527-3.406.324-.973-.172-1.938-.403-2.899-.625-.762-.176-1.527-.266-2.3-.219-.602.035-1.18.18-1.7.5-.394.242-.398.672.02.863.199.094.46.118.683.086.446-.058.88-.039 1.285.13.582.237 1.145.523 1.715.792.582.278 1.145.598 1.746.82.711.266 1.47.297 2.215.157.723-.14 1.45-.297 2.145-.524.523-.168 1.004-.468 1.508-.703.632-.293 1.066-.797 1.312-1.426.2-.5.316-1.03.43-1.558.062-.301.05-.617.07-.93l-.07-.023c-.532 1.078-1.434 1.746-2.512 2.257m55.21 19.372c-.218.253-.468.488-.651.765a16 16 0 0 0-.895 1.492c-.11.207-.102.473-.144.715l.097.051c.387-.406.781-.805 1.16-1.219.684-.742 1.563-1.183 2.461-1.586.645-.289 1.278-.59 1.84-1.035.969-.765 1.254-1.762 1.016-2.93-.153-.746-.524-1.398-.946-2.027-.722-1.086-1.437-2.176-2.168-3.262a10 10 0 0 0-.582-.761c-.128-.157-.304-.2-.5-.114-.187.086-.285.243-.222.43.117.356.25.711.418 1.047.27.539.62 1.039.855 1.59.387.926.489 1.91.442 2.906a4.2 4.2 0 0 1-.575 1.945c-.43.73-.984 1.364-1.605 1.993M42.813 38.789c-.016.219-.06.438-.047.656.039.63.101 1.258.144 1.887.059.883.106 1.766.156 2.648.004.051.024.102.036.149.05-.066.058-.129.066-.191q.075-.944.156-1.887c.063-.754.13-1.512.2-2.266.046-.52.081-1.039.163-1.555.047-.304.157-.609.458-.78.355-.2.718-.395 1.07-.602a8.2 8.2 0 0 0 2.097-1.758c.536-.63 1.09-1.242 1.61-1.883.39-.48.617-1.039.578-1.684-.035-.593-.09-1.191-.094-1.789-.011-.644.004-1.289.051-1.925a24 24 0 0 1 .219-1.852c.07-.473.172-.937.258-1.402-.258.28-.465.593-.68.898-.582.809-.879 1.719-.969 2.7-.074.855-.12 1.714-.207 2.57a5.5 5.5 0 0 1-.664 2.074c-.418.754-1.023 1.332-1.703 1.844-.68.515-1.395.988-1.977 1.632-.64.711-.89 1.543-.922 2.516m20.114 32.102c-.063.03-.125.054-.184.086a3.3 3.3 0 0 0-1.59 1.886c-.27.782-.48 1.578-.707 2.371-.11.391-.195.79-.308 1.25.062-.082.09-.105.11-.14.284-.485.534-.992.862-1.446a12 12 0 0 1 1.286-1.52c.449-.437.957-.823 1.472-1.179a9.5 9.5 0 0 1 1.528-.863c.62-.27 1.285-.445 1.925-.676.27-.094.528-.23.637-.527.164-.453.336-.91.484-1.371.227-.715.434-1.438.657-2.153.191-.601.46-1.156.914-1.613.68-.683 1.543-1.062 2.375-1.496.476-.246.957-.488 1.43-.746.16-.086.304-.211.456-.316q-.02-.036-.043-.07c-.25.124-.496.253-.75.374-.765.363-1.535.719-2.304 1.082-.844.399-1.672.828-2.531 1.192-.618.261-.887.695-.907 1.34-.027.73-.328 1.382-.707 1.98-.613.953-1.543 1.5-2.566 1.91-.508.2-1.004.418-1.54.645M78.25 30.473c.531.52 1.086 1.023 1.371 1.734.14.36.246.734.371 1.102.074.214.262.324.45.246q.204-.09.386-.227a2.52 2.52 0 0 0 .992-1.644 3 3 0 0 0 .024-.852c-.086-.625-.403-1.145-.797-1.633-.29-.355-.598-.707-1.024-.832-.691-.199-1.39-.129-1.996.313a.725.725 0 0 0-.28.836c.108.328.316.62.503.957M17.074 67.93c.133-.47.184-.934.055-1.414-.074-.262-.18-.493-.418-.637-.402-.25-.828-.211-1.23-.031-.75.336-1.266.886-1.497 1.703-.191.676-.148 1.293.329 1.84.328.37.94.46 1.363.226.668-.379 1.078-.969 1.398-1.687m-1.828 6.097c-.191-.011-.422.035-.562-.054-.125-.078-.2-.11-.329-.067-.253.082-.52.13-.761.242-.356.168-.68.399-.903.743-.226.347-.039.859.407 1.129.656.398 1.379.535 2.12.484.856-.063 1.458-.774 1.063-1.7-.195-.452-.543-.667-1.035-.777M84.02 26.914c.593-.2.789-.727.46-1.223-.507-.77-1.664-1.003-2.445-.55-.265.152-.504.375-.515.734-.012.445.363.934.843 1.027.532.11 1.075.16 1.657.012m0 0"/><path style="stroke:none;fill-rule:nonzero;fill:#e2a258;fill-opacity:1" d="M5.277 73.207c.016.004.028.012.04.05.038.055.074.079.105.102.855 1.063 1.816 2.02 2.93 2.805.812.57 1.668 1.078 2.62 1.383.657.207 1.313.414 1.981.57.453.106.93.14 1.395.172.98.066 1.964.11 2.945.16.645.031 1.293.055 1.937.102 1.348.101 2.688.261 3.973.722.274.098.543.223.797.368.18.101.293.058.406-.086a3 3 0 0 1 1.461-1.032c.403-.132.832-.191 1.25-.28.684-.145 1.371-.294 1.953-.712.492-.355.836-.844 1.078-1.402.215-.492.43-.984.622-1.488.246-.641.472-1.29.69-1.942.227-.687.435-1.383.653-2.074.012-.035.035-.062.086-.082-.074.398-.14.8-.226 1.2-.18.823-.344 1.648-.563 2.456a95 95 0 0 1-1.02 3.465c-.19.617-.624.984-1.261 1.148-.887.223-1.766.485-2.64.754-.673.207-.65.414-.563 1.106.047.355.246.578.508.8.488.415.914.9 1.418 1.29.39.304.851.527 1.296.765.536.29 1.125.426 1.715.535.426.079.867.13 1.297.126a41 41 0 0 0 2.672-.102c.871-.066 1.73-.23 2.598-.285 1.133-.07 2.273-.133 3.406-.094.84.027 1.684.18 2.508.363a61 61 0 0 1 3.406.899c.977.285 1.934.64 2.906.926 1.086.324 2.176.632 3.278.89.836.2 1.687.375 2.546.445 1.047.086 2.106.106 3.157.051a18 18 0 0 0 2.906-.41 21 21 0 0 0 3.293-1.008c1.152-.457 2.258-1.015 3.215-1.812.707-.586 1.238-1.317 1.527-2.188.297-.91.531-1.84.797-2.761.219-.75.441-1.497.852-2.18.46-.766 1.109-1.285 1.914-1.613.816-.329 1.683-.45 2.546-.575 1.465-.214 2.86-.605 3.891-1.754.52-.578.98-1.218 1.43-1.859.695-.992 1.293-2.058 2.117-2.953a124 124 0 0 1 2.703-2.816c.492-.497 1.024-.957 1.527-1.438.508-.484 1.036-.953 1.504-1.473.621-.683 1.204-1.406 1.79-2.125.558-.691.98-1.468 1.335-2.28.43-.977.73-1.993.829-3.06.066-.738.124-1.484.093-2.222-.035-.848-.133-1.7-.27-2.535-.312-1.89-.89-3.719-1.448-5.547-.235-.774-.489-1.54-.731-2.313-.11-.351-.191-.714-.312-1.062a.7.7 0 0 0-.227-.317c-.668-.48-1.336-.964-2.02-1.417-.398-.262-.804-.52-1.308-.547-.664-.032-1.188.257-1.637.707-.465.465-.894.968-1.379 1.414a3.6 3.6 0 0 1-.93.625c-.55.254-1.132.16-1.699.004-.703-.188-1.398-.43-2.113-.57a23 23 0 0 0-2.41-.337 16 16 0 0 0-2.02-.05c-.675.03-1.347.136-2.023.21-.11.012-.215.032-.32.047q-.017-.036-.028-.074c.324-.133.64-.285.977-.39a7.4 7.4 0 0 1 2.277-.364c.512 0 1.028-.05 1.54-.043.862.016 1.73.106 2.593.086 1.066-.027 2.129-.117 3.14-.511.864-.336 1.618-.825 2.188-1.57.414-.54.817-1.095 1.238-1.626.36-.445.793-.812 1.32-1.039.587-.254 1.067-.148 1.516.313.067.062.13.132.227.238-.016-.344-.027-.645-.043-.95 0-.007-.008-.015-.008-.023 0-1.168-.008-2.336-.008-3.504q.001-.353.032-.707c.07-.847.148-1.691.253-2.539.086.492.149.985.2 1.48.09.903.164 1.81.261 2.716.106.953.207 1.906.352 2.855.195 1.254.402 2.508.664 3.75.21.996.5 1.977.781 2.953.293 1.008.64 1.992.926 3 .453 1.594.922 3.188 1.145 4.84.093.707.191 1.418.222 2.133.04 1.012.04 2.027-.144 3.031-.157.844-.305 1.691-.508 2.52-.23.937-.598 1.828-1 2.703-.418.906-.914 1.77-1.473 2.59-.953 1.394-2.09 2.644-3.21 3.898-.575.64-1.177 1.258-1.739 1.906a71 71 0 0 0-2.031 2.45 14 14 0 0 0-1.828 2.996c-.407.914-.735 1.863-1.075 2.808-.363 1.016-.703 2.043-1.222 2.996a10 10 0 0 1-1.766 2.332 15.4 15.4 0 0 1-1.637 1.387 55 55 0 0 1-3.074 2.102c-.933.59-1.906 1.113-2.879 1.629-.87.464-1.75.91-2.652 1.3-1.457.637-2.926 1.246-4.453 1.692-1.176.34-2.352.683-3.535 1.004-.645.175-1.301.316-1.957.453-.543.113-1.09.203-1.633.293-.563.09-1.125.183-1.692.254a52 52 0 0 1-2.05.21c-.88.075-1.758.165-2.637.192-1.027.035-2.059.016-3.09.004a22 22 0 0 1-1.512-.055 84 84 0 0 1-2.629-.25c-.816-.09-1.636-.18-2.441-.324a57 57 0 0 1-3.348-.691 65 65 0 0 1-3.543-.973 30 30 0 0 1-2.437-.875c-1.074-.434-2.152-.867-3.192-1.379-1.718-.852-3.41-1.762-5.105-2.656a19 19 0 0 0-3.809-1.528c-1.14-.32-2.296-.574-3.453-.82-1.203-.254-2.39-.555-3.535-.992-1.137-.434-2.207-1-3.16-1.77-.219-.175-.453-.332-.684-.5 0 0 .004 0 .004-.015a.5.5 0 0 0-.093-.09c-.875-1.043-1.575-2.2-2.176-3.414a24 24 0 0 1-1.004-2.246c-.379-.985-.692-1.996-1.016-3.016.418.442.805.91 1.215 1.36.2.218.438.402.656.601m0 0"/><path style="stroke:none;fill-rule:nonzero;fill:#c68a4f;fill-opacity:1" d="M7.695 80.047c.227.148.461.305.68.48.953.77 2.023 1.336 3.16 1.77 1.145.437 2.332.738 3.535.992 1.157.246 2.313.5 3.453.82 1.32.368 2.59.883 3.809 1.528 1.695.894 3.387 1.804 5.105 2.656 1.04.512 2.118.945 3.192 1.379.8.32 1.613.625 2.437.875a67 67 0 0 0 3.543.973c1.106.265 2.227.492 3.348.69.805.145 1.625.235 2.441.325q1.311.146 2.63.25c.503.04 1.007.05 1.511.055 1.031.012 2.063.031 3.09-.004.879-.027 1.758-.117 2.637-.191a52 52 0 0 0 2.05-.211c.567-.07 1.13-.164 1.692-.254.543-.09 1.09-.18 1.633-.293a33 33 0 0 0 1.957-.453c1.183-.32 2.359-.664 3.535-1.004 1.527-.446 2.996-1.055 4.453-1.692a36 36 0 0 0 2.652-1.3c.973-.516 1.946-1.04 2.88-1.63a55 55 0 0 0 3.073-2.101c.579-.422 1.125-.89 1.637-1.387a10 10 0 0 0 1.766-2.332c.52-.953.86-1.98 1.222-2.996.34-.945.668-1.894 1.075-2.808a14 14 0 0 1 1.828-2.996 71 71 0 0 1 2.031-2.45c.563-.648 1.164-1.265 1.738-1.906 1.121-1.254 2.258-2.504 3.211-3.898a18 18 0 0 0 1.473-2.59c.402-.875.77-1.766 1-2.703.203-.828.351-1.676.508-2.52.183-1.004.183-2.02.144-3.031-.031-.715-.129-1.426-.222-2.133-.223-1.652-.692-3.246-1.145-4.84-.285-1.008-.633-1.992-.926-3-.281-.976-.57-1.957-.781-2.953a72 72 0 0 1-.664-3.75c-.145-.95-.246-1.902-.352-2.855-.097-.907-.171-1.813-.261-2.715a34 34 0 0 0-.188-1.492c.055-1.137.121-2.262.188-3.383.023-.48.035-.961.054-1.465.098.25.22.523.29.808.206.864.425 1.727.59 2.598.163.875.28 1.754.386 2.637.215 1.8.41 3.605.61 5.41.074.652.117 1.309.206 1.961.114.805.258 1.605.395 2.41.453 2.664 1.383 5.2 2.121 7.785.2.7.379 1.403.559 2.106.351 1.383.629 2.781.675 4.215 0 .082.028.164.04.285a.4.4 0 0 0 .015.105c-.004.442-.004.883-.008 1.36-.004.046 0 .058 0 .066-.047.504-.07 1.008-.144 1.508a20.5 20.5 0 0 1-.883 3.691c-.785 2.281-2.043 4.266-3.598 6.074-1.293 1.497-2.64 2.946-3.949 4.43-1.312 1.484-2.539 3.047-3.352 4.875-.507 1.145-.902 2.344-1.328 3.527-.476 1.329-1.03 2.614-1.93 3.72-.847 1.038-1.855 1.898-2.933 2.675a44.5 44.5 0 0 1-13.867 6.738c-1.18.332-2.375.621-3.567.918-1.425.352-2.875.59-4.332.754q-1.349.149-2.699.262c-.668.05-1.34.07-2.058.101-.926-.003-1.805 0-2.684.008-.605-.02-1.215-.015-1.816-.062a81 81 0 0 1-2.914-.301c-.946-.117-1.895-.234-2.829-.418a61 61 0 0 1-3.351-.773 41.7 41.7 0 0 1-8.086-2.95c-1.586-.773-3.129-1.636-4.695-2.449-1.184-.613-2.371-1.215-3.672-1.555q-1.765-.46-3.535-.91c-.914-.23-1.829-.433-2.735-.68-1.207-.331-2.363-.796-3.433-1.453-1.278-.777-2.371-1.761-3.32-2.933m0 0"/><path style="stroke:none;fill-rule:nonzero;fill:#c78d50;fill-opacity:1" d="M5.273 73.188c-.214-.18-.453-.364-.652-.583-.41-.449-.797-.918-1.215-1.378-.254-.829-.492-1.653-.726-2.477-.063-.227-.106-.46-.153-.71.172.425.332.874.512 1.32q.552 1.354 1.375 2.562c.281.418.57.832.86 1.266m0 0"/><path style="stroke:none;fill-rule:nonzero;fill:#feedca;fill-opacity:1" d="M53.23 3.898a1 1 0 0 1-.273.055c-.48.024-.96.043-1.46.055.171-.047.362-.121.558-.133.386-.016.773.004 1.175.023m2.399.079q-.81-.007-1.652-.055c.414-.02.847-.031 1.28-.031.122 0 .243.043.372.086m0 0"/><path style="stroke:none;fill-rule:nonzero;fill:#fce2b2;fill-opacity:1" d="M.672 54.23c.023.489.027.989.027 1.512-.027.008-.066-.008-.066-.02.008-.495.015-.988.039-1.492m0 0"/><path style="stroke:none;fill-rule:nonzero;fill:#f7dab8;fill-opacity:1" d="M48.098 94.543c.863-.02 1.742-.023 2.644-.02-.004.02-.035.043-.062.043-.856 0-1.711-.004-2.582-.023m0 0"/><path style="stroke:none;fill-rule:nonzero;fill:#f2d19e;fill-opacity:1" d="M3.36 30.113c.023.407.027.825.027 1.266-.028.008-.063-.008-.063-.024.004-.41.012-.82.035-1.242m0 0"/><path style="stroke:none;fill-rule:nonzero;fill:#fdecc7;fill-opacity:1" d="M38.742 6.34a17 17 0 0 1-1.082.11c.008-.032.035-.079.067-.083a22 22 0 0 1 1.015-.027m0 0"/><path style="stroke:none;fill-rule:nonzero;fill:#feedca;fill-opacity:1" d="M56.793 4.086A8 8 0 0 1 56 4.027q.382.006.793.059M51.309 4a8 8 0 0 1-.73.105c.202-.19.46-.132.73-.105m0 0"/><path style="stroke:none;fill-rule:nonzero;fill:#fde9c4;fill-opacity:1" d="M4.156 36.5c.047.16.102.34.14.527.016.07.005.149 0 .246a8 8 0 0 1-.136-.605c-.012-.047-.004-.098-.004-.168m.129 1.113q.035.317.027.68a5 5 0 0 1-.027-.68m-.015 1q-.02.34-.098.703.025-.339.098-.703m0 0"/><path style="stroke:none;fill-rule:nonzero;fill:#fce2b2;fill-opacity:1" d="M.723 52.96a9 9 0 0 1-.02.794c-.004-.246 0-.516.02-.793m0 0"/><path style="stroke:none;fill-rule:nonzero;fill:#fdecc7;fill-opacity:1" d="M39.605 6.238a6 6 0 0 1-.628.11q.288-.072.628-.11m0 0"/><path style="stroke:none;fill-rule:nonzero;fill:#fde9c4;fill-opacity:1" d="M1.043 60.504q.07.263.11.578a5 5 0 0 1-.11-.578m0 0"/><path style="stroke:none;fill-rule:nonzero;fill:#feedca;fill-opacity:1" d="M57.605 4.191a5 5 0 0 1-.59-.062q.278.005.59.062m0 0"/><path style="stroke:none;fill-rule:nonzero;fill:#fde9c4;fill-opacity:1" d="M.945 59.691q.065.263.102.579a4 4 0 0 1-.102-.579m0 0"/><path style="stroke:none;fill-rule:nonzero;fill:#f2d19e;fill-opacity:1" d="M32.863 6.414c-.379.008-.777.012-1.191 0-.012-.016-.016-.023.008-.02.066.004.11 0 .148-.003.035 0 .067 0 .137.007h.465c.136 0 .273.004.433.016m0 0"/><path style="stroke:none;fill-rule:nonzero;fill:#fde9c4;fill-opacity:1" d="M1.145 61.219q.069.234.109.527a4 4 0 0 1-.11-.527m0 0"/><path style="stroke:none;fill-rule:nonzero;fill:#fdecc7;fill-opacity:1" d="M40.313 6.137a3.5 3.5 0 0 1-.524.11q.235-.068.523-.11m0 0"/><path style="stroke:none;fill-rule:nonzero;fill:#fce2b2;fill-opacity:1" d="M.684 56.074q.04.295.039.637c-.028-.2-.04-.406-.04-.637m0 0"/><path style="stroke:none;fill-rule:nonzero;fill:#feedca;fill-opacity:1" d="M58.313 4.3a3.5 3.5 0 0 1-.54-.07c.168.008.352.028.54.07m0 0"/><path style="stroke:none;fill-rule:nonzero;fill:#fdecc7;fill-opacity:1" d="M40.918 6.05a5 5 0 0 1-.473.095q.207-.054.473-.094m0 0"/><path style="stroke:none;fill-rule:nonzero;fill:#feedca;fill-opacity:1" d="M58.871 4.395q-.208 0-.441-.047a2 2 0 0 1 .441.047m.555.113a2.4 2.4 0 0 1-.438-.07c.137.007.285.027.438.07m-9.078-.406a1.3 1.3 0 0 1-.328.078q.14-.054.328-.078m0 0"/><path style="stroke:none;fill-rule:nonzero;fill:#fdecc7;fill-opacity:1" d="M32.418 6.387c-.129.011-.27.011-.438.008a3 3 0 0 1 .438-.008m0 0"/><path style="stroke:none;fill-rule:nonzero;fill:#f2d19e;fill-opacity:1" d="M3.379 31.656q.03.117.031.282a.9.9 0 0 1-.031-.282m.004-2.086c.015.082.023.176.015.282a1 1 0 0 1-.015-.282m0 0"/><path style="stroke:none;fill-rule:nonzero;fill:#fdecc7;fill-opacity:1" d="M33.59 6.43a.5.5 0 0 1-.188.011.4.4 0 0 1 .188-.011m-4.356-.02h-.058l-.156-.015c.066-.02.128-.04.203-.032a.1.1 0 0 1 .011.047m0 0"/><path style="stroke:none;fill-rule:nonzero;fill:#fce2b2;fill-opacity:1" d="M.746 52.36q.03.073.024.183a.4.4 0 0 1-.024-.184m0 0"/><path style="stroke:none;fill-rule:nonzero;fill:#fde9c4;fill-opacity:1" d="M1.25 61.926q.031.047.027.129a.2.2 0 0 1-.027-.13m0 0"/><path style="stroke:none;fill-rule:nonzero;fill:#fdecc7;fill-opacity:1" d="M31.824 6.375c-.035.02-.078.023-.144.02a.3.3 0 0 1 .144-.02m0 0"/><path style="stroke:none;fill-rule:nonzero;fill:#c78d50;fill-opacity:1" d="M2.395 67.684a.3.3 0 0 1 .085.12.3.3 0 0 1-.085-.12m0 0"/><path style="stroke:none;fill-rule:nonzero;fill:#fbdeac;fill-opacity:1" d="M29.012 6.398c.05 0 .09.004.152.012a.6.6 0 0 1-.172.008c-.008-.012.008-.02.02-.02m0 0"/><path style="stroke:none;fill-rule:nonzero;fill:#c78d50;fill-opacity:1" d="M2.477 67.832a1 1 0 0 1 .054.172.7.7 0 0 1-.054-.172m0 0"/><path style="stroke:none;fill-rule:nonzero;fill:#c68a4f;fill-opacity:1" d="M7.605 79.938q.043.012.09.078a.3.3 0 0 1-.09-.079m0 0"/><path style="stroke:none;fill-rule:nonzero;fill:#f8cf92;fill-opacity:1" d="M34.23 6.46a.3.3 0 0 1-.125.013c.032-.016.07-.016.125-.012m0 0"/><path style="stroke:none;fill-rule:nonzero;fill:#f5e0c9;fill-opacity:1" d="M95.422 53.816c-.016-.015-.02-.035-.02-.078.012.012.02.043.02.078m0 0"/><path style="stroke:none;fill-rule:nonzero;fill:#fbdeac;fill-opacity:1" d="M29.25 6.41c-.016 0-.016-.023-.016-.035.028-.008.055-.004.098.012-.016.015-.039.02-.082.023m-.437 0c-.012.012-.043.02-.083.02.016-.016.04-.02.082-.02m0 0"/><path style="stroke:none;fill-rule:nonzero;fill:#f5e0c9;fill-opacity:1" d="M95.414 55.246q-.013-.006-.008-.035.017-.004.028.016c0 .003-.008.007-.02.02m0 0"/><path style="stroke:none;fill-rule:nonzero;fill:#f8cf92;fill-opacity:1" d="M37.277 6.457c0 .012-.015.016-.035.016.004-.012.012-.016.035-.016m0 0"/><path style="stroke:none;fill-rule:nonzero;fill:#fec552;fill-opacity:1" d="M26.902 12.715c-.172.8-.293 1.598-.535 2.355-.21.672-.527 1.317-.851 1.942-.426.816-1.067 1.468-1.766 2.058-.453.38-.89.77-1.352 1.137-.464.375-.957.715-1.421 1.086-.504.406-1.02.8-1.489 1.25a36 36 0 0 0-1.945 2.004 10.8 10.8 0 0 0-1.598 2.324 10.3 10.3 0 0 0-.64 1.606c-.18.566-.309 1.152-.426 1.738-.074.36-.102.73-.133 1.101-.105 1.137-.21 2.278-.3 3.418-.067.82-.298 1.598-.536 2.383-.215.7-.535 1.34-.844 1.996-.43.903-1.004 1.703-1.632 2.473-.606.738-1.27 1.406-2.168 1.785-.743.313-1.496.34-2.211-.055-.617-.34-.942-.894-.973-1.605-.027-.672.156-1.297.395-1.918.343-.91.789-1.793.945-2.766.078-.492.156-.984.168-1.48.02-.758 0-1.524-.047-2.281-.055-.864-.184-1.723-.238-2.586-.07-1.012-.102-2.02.023-3.035.113-.91.309-1.79.676-2.63.223-.5.48-.98.875-1.374.234-.23.45-.48.684-.703.16-.153.347-.305.554-.047.375-.395.727-.797 1.106-1.164a20.4 20.4 0 0 1 3.07-2.45c.598-.39 1.18-.804 1.777-1.195.535-.352 1.086-.672 1.621-1.023.422-.274.832-.567 1.25-.856.954-.66 1.899-1.332 2.72-2.164.773-.785 1.523-1.598 2.316-2.363.55-.535 1.183-.973 1.964-1.117.305-.055.622-.082.907.093.336.215.277.551.238.871-.047.391-.121.778-.184 1.192m-17.03 12.89c-.134.262-.29.516-.395.79-.418 1.05-.344 2.132-.18 3.218.098.64.219 1.282.27 1.926.07.898.023 1.797-.215 2.668-.286 1.023-.637 2.023-.942 3.043a28 28 0 0 0-.45 1.71c-.07.31.04.403.368.419.688.027 1.094-.387 1.375-.934a7.8 7.8 0 0 0 .77-2.43c.175-1.206.308-2.421.41-3.64.105-1.27.203-2.54.629-3.75a10 10 0 0 1 .832-1.809c.297-.503.68-.964 1.074-1.398.594-.648 1.234-1.246 1.848-1.875.43-.441.855-.887 1.254-1.355.207-.243.082-.54-.215-.563-.512-.04-1.016-.02-1.461.281-.348.235-.68.492-1.031.727a25 25 0 0 1-1.239.77c-.273.16-.582.265-.86.421a5.2 5.2 0 0 0-1.843 1.781m37.805-4.14c-.156 1.066-.446 2.066-.938 3-.48.918-1.152 1.652-2.097 2.113-.532.258-1.086.48-1.602.77a7.7 7.7 0 0 0-1.23.863c-.97.832-1.559 1.914-2.004 3.105-.23.618-.575 1.2-1.164 1.582-.91.594-2.239.59-3.055-.191-.844-.805-1.043-1.75-.738-2.86.175-.636.32-1.288.402-1.945.082-.656-.23-1.215-.727-1.613-.488-.39-1.027-.73-1.574-1.039-.812-.46-1.636-.902-2.297-1.578-.652-.664-1.004-1.473-.957-2.422.016-.41.149-.793.555-.973.18-.078.406-.09.61-.07.663.063 1.042-.176 1.21-.816.078-.317.117-.645.215-.957.223-.72.563-1.38 1.168-1.848a7.7 7.7 0 0 1 1.203-.77c.293-.148.633-.254.961-.28.871-.075 1.738-.044 2.477.538q.639.504.715 1.313c.07.73.097 1.465.218 2.183.098.594.43 1.098.887 1.496.414.368.89.622 1.445.723.47.09.926.027 1.371-.09.387-.101.754-.277 1.125-.422.81-.32 1.61-.66 2.43-.949.258-.094.563-.078.848-.074.328.004.578.281.59.637.007.183-.032.37-.047.574m0 0"/><path style="stroke:none;fill-rule:nonzero;fill:#fec552;fill-opacity:1" d="M51.125 7.938c.984.203 1.945.468 2.922.585.707.082 1.445.008 2.164-.07.922-.101 1.832-.297 2.754-.41.691-.086 1.39-.16 2.082-.145.996.024 1.969.235 2.808.817.551.383.977.887 1.032 1.601.027.368-.153.672-.442.891-.468.352-1.02.54-1.582.695-1.593.438-3.222.274-4.843.309-1.196.027-2.383.113-3.532.476a95 95 0 0 0-3.082 1.012c-.718.25-1.433.52-2.12.844a8.4 8.4 0 0 0-2.532 1.816 29 29 0 0 1-1.742 1.692c-.801.707-1.754 1.09-2.832.965-1.04-.118-1.59-.614-1.84-1.575-.164-.632-.219-1.293-.313-1.941-.09-.64-.18-1.281-.246-1.926-.066-.66-.164-1.324-.148-1.988.02-.863.32-1.64.93-2.29.808-.855 1.835-1.269 2.94-1.566 1.442-.386 2.915-.406 4.384-.34 1.086.051 2.164.243 3.238.548m0 0"/><path style="stroke:none;fill-rule:nonzero;fill:#fec553;fill-opacity:1" d="M17.094 56.41c-.168.153-.332.309-.508.457-.461.387-1.016.531-1.594.621-.805.125-1.59.004-2.379-.129-.765-.125-1.511-.382-2.308-.332-.793.047-1.371.399-1.766 1.102-.355.637-.426 1.324-.48 2.023-.036.453-.082.914-.043 1.368a23 23 0 0 0 .324 2.316c.144.727.37 1.434.55 2.152.15.582.075 1.13-.359 1.57-.226.231-.508.383-.847.391-.313.012-.649-.277-.747-.652-.101-.399-.18-.809-.324-1.192-.215-.57-.691-.945-1.09-1.378-.355-.391-.726-.782-1.007-1.227-.328-.523-.473-1.137-.504-1.754a53 53 0 0 1-.098-3.344c.004-.675.094-1.359.188-2.03.113-.84.234-1.684.421-2.513.165-.726.407-1.441.641-2.148.168-.512.352-1.023.574-1.512.645-1.398 1.574-2.511 3.055-3.097.953-.375 1.953-.524 2.945-.704 1.117-.203 2.219-.437 3.2-1.062.714-.457 1.124-1.133 1.472-1.879.309-.66.633-1.32.985-1.96.238-.43.632-.735 1.105-.864.508-.14.98.008 1.375.36.57.51.973 1.14 1.223 1.855.351 1 .683 2.015.773 3.078.07.867.106 1.754-.226 2.597-.047.118-.07.243-.13.383a6.7 6.7 0 0 0-2.253.145c-1.496.363-2.637 1.16-3.086 2.722-.27.942-.262 1.895-.047 2.852.152.691.512 1.266.965 1.785m-1.649-8.87c-.156.093-.32.183-.476.284-.844.524-1.781.77-2.742.965-.79.16-1.59.3-2.352.55-1.68.556-2.832 1.735-3.652 3.278-.778 1.469-1.016 3.063-1.098 4.692-.023.476.023.96.047 1.441.008.2.035.398.058.61.665.07 1.122-.258 1.504-.708.329-.382.496-.859.618-1.347.207-.825.386-1.657.64-2.465.235-.746.63-1.426 1.227-1.95.77-.667 1.656-.976 2.68-.745.496.113.874.43 1.238.757.34.305 1.05.426 1.37-.05.24-.352.438-.743.583-1.141.469-1.258 1.12-2.398 2.043-3.379.265-.285.465-.637.672-.973.11-.18.21-.414.058-.593-.152-.188-.398-.13-.613-.078-.652.144-1.219.476-1.805.851m0 0"/><path style="stroke:none;fill-rule:nonzero;fill:#683506;fill-opacity:1" d="M49.602 66.59c.066-.008.128-.016.23-.016a.5.5 0 0 0 .125-.031c.34-.031.676-.059 1.043-.082.043 0 .059-.004.074-.012.41.016.82.031 1.258.067a.24.24 0 0 0 .11.023c1.374.04 3.167.816 3.644 2.297.633 1.977-.426 4.105-2.496 4.465-.48.086-.961.18-1.434.304-.746.2-1.246.684-1.402 1.45-.125.625-.188 1.257-.27 1.89-.21 1.575-1.547 2.778-3.02 3.075-1.034.207-1.968-.028-2.792-.66-1.555-1.196-2.563-2.758-2.95-4.688-.222-1.102.055-2.156.52-3.156.973-2.106 2.64-3.454 4.77-4.262.511-.192 1.047-.317 1.61-.469.062-.012.089-.027.116-.039.051-.008.102-.02.184-.023.043-.008.058-.02.07-.032.156-.027.313-.054.5-.074a.3.3 0 0 0 .11-.027m-3.88 5.293c.7-1.13 1.66-1.86 3.008-2.043.715-.098 1.422-.074 2.133-.008.547.055 1.098.055 1.621-.148.567-.215.727-.793.375-1.282-.304-.422-.75-.53-1.222-.543a39 39 0 0 0-2.328.012c-.633.024-1.254.137-1.825.442-.593.32-1.195.628-1.773.976-1.02.621-1.918 1.387-2.578 2.395-.727 1.113-.645 2.664.183 3.601.293.328.672.488 1.118.352.425-.13.593-.473.648-.883.04-.266.05-.54.055-.809a4.1 4.1 0 0 1 .586-2.062M85.324 50.16c-.07 1.512-.547 2.883-1.23 4.18-.992 1.89-2.356 3.45-4.172 4.582-1.133.707-2.367 1.152-3.719.992-1.633-.195-2.875-.984-3.465-2.605-.312-.864-.164-1.555.547-2.133.797-.653 1.512-1.352 1.95-2.301.378-.828.617-1.7.843-2.578.258-1.024.524-2.05.852-3.055a3.93 3.93 0 0 1 1.199-1.765c.863-.743 1.89-.887 2.93-.641 1.945.46 3.316 1.648 4.03 3.547.212.558.255 1.152.235 1.777m-5.59.27c.262-1.149.989-1.489 2.012-.946.223.118.45.243.684.325.46.16.882.011 1.156-.391.3-.441.379-.93.191-1.426-.375-.988-1.113-1.617-2.078-1.984-.832-.32-1.597-.168-2.277.387-.93.761-1.496 1.699-1.41 2.964.093 1.336-.29 2.543-1.082 3.618a2.1 2.1 0 0 0-.293.59c-.14.456.14.835.613.804.215-.016.465-.09.625-.226.633-.547 1.16-1.196 1.453-1.98.203-.54.266-1.13.406-1.735M63.953 25.96c-.945.446-1.914.474-2.902.263-.61-.13-1.219-.262-1.832-.375-.93-.18-1.856-.137-2.785.058-.422.086-.871.133-1.297.086-.727-.074-1.207-.699-1.235-1.437-.027-.82.282-1.555.559-2.297.195-.524.445-1.031.582-1.57.148-.583.215-1.188.277-1.786.047-.414.02-.832.04-1.246.07-1.418 1.03-2.226 2.21-2.441 1.508-.274 2.895.066 4.106 1.015.469.372.918.782 1.32 1.22.586.644 1.281 1.152 1.93 1.714 1.015.879 1.472 2.02 1.39 3.348-.093 1.601-.933 2.726-2.363 3.449m-3.41-5.734c.437.398.883.472 1.371.226.445-.223.664-.648.61-1.207-.04-.418-.32-.695-.59-.976-.34-.356-.7-.692-1.008-1.07-.758-.946-1.715-1.262-2.88-.97-.944.239-1.483.918-1.46 1.81.012.378.215.597.594.628.46.035.773-.2.965-.598.14-.285.367-.36.644-.332.648.055 1.106.504 1.2 1.172.066.477.167.938.554 1.317M27.605 34.203c-.52.004-1.043.008-1.593-.008-.078-.015-.125-.011-.172-.008-.79-.136-1.582-.234-2.36-.421a36 36 0 0 1-2.914-.832c-1.246-.41-1.808-1.364-1.867-2.625-.11-2.348 1.465-4.766 3.64-5.61.794-.308 1.622-.273 2.411-.035.828.25 1.633.59 2.438.91.992.403 1.984.809 2.964 1.238 1.012.45 1.743 1.18 1.953 2.305.293 1.563-.203 2.856-1.417 3.867a4.8 4.8 0 0 1-1.833.961.2.2 0 0 0-.078.032 14 14 0 0 1-.855.183c-.129.008-.223.028-.317.043m-.855-6.164c.02-.254.105-.527.047-.766-.2-.84-.813-1.27-1.606-1.48-.597-.16-1.199-.098-1.804-.004-1.676.254-2.867 1.36-3.203 3.02-.09.453-.098.906.027 1.359.066.246.18.469.445.539.282.078.52-.05.7-.254a1.8 1.8 0 0 0 .32-.515c.156-.399.27-.817.414-1.223.234-.64.637-.922 1.312-.89.246.015.5.077.73.167.477.172.927.414 1.407.563.555.175.95-.012 1.211-.516m-9.64 28.379c-.47-.527-.829-1.102-.981-1.793-.215-.957-.223-1.91.047-2.852.449-1.562 1.59-2.359 3.086-2.722a6.2 6.2 0 0 1 2.25-.125c2.105.293 3.515 1.531 4.547 3.285.597 1.016 1.105 2.082 1.343 3.246.29 1.39-.105 2.559-1.246 3.441-.101.079-.203.157-.328.25-.2.137-.371.25-.547.368q-.656.322-1.312.652c-.942.473-1.782.32-2.496-.45-.77-.827-1.711-1.421-2.645-2.027-.594-.386-1.137-.84-1.719-1.273m4.543-6.309a4.7 4.7 0 0 0-1.898-.164c-1.074.125-1.887.625-2.317 1.64-.453 1.071-.417 1.907.602 2.673.531.398 1.012.844 1.34 1.433a.8.8 0 0 0 .168.22c.219.206.469.355.777.284.235-.054.363-.242.422-.465.078-.28.004-.542-.156-.773-.149-.215-.324-.41-.492-.613-.297-.356-.618-.692-.899-1.063-.242-.324-.3-.699-.09-1.074.352-.633 1.004-.766 1.614-.328.242.172.465.367.707.531.226.156.472.27.761.215.63-.125.98-.844.72-1.477-.231-.554-.684-.836-1.259-1.039m0 0"/><path style="stroke:none;fill-rule:nonzero;fill:#e2a258;fill-opacity:1" d="M68.883 32.223c-.54-.309-1.067-.61-1.594-.907l.047-.078c.312.149.625.305.941.446a5 5 0 0 0 1.621.43c.598.046 1.157-.051 1.672-.329.653-.348 1.051-.914 1.18-1.644.176-1.004.004-1.961-.488-2.86a28 28 0 0 1-.766-1.535c-.234-.508-.285-.871.176-1.281q.786-.692 1.59-1.367c.691-.575 1.363-1.176 1.648-2.063.324-1.012.094-1.933-.613-2.722-.637-.711-1.461-1.13-2.328-1.473-1.235-.496-2.531-.793-3.813-1.121-.449-.114-.89-.254-1.332-.383-.05-.016-.097-.05-.172-.09.055-.039.082-.078.118-.078a8.7 8.7 0 0 1 3.39.273c1.055.309 2.11.621 3.13 1.024 1.116.441 2.214.941 3.28 1.496.793.406 1.508.973 2.043 1.7.54.73.914 1.534.992 2.476.075.84-.07 1.613-.578 2.265-.32.41-.73.785-1.18 1.047-.566.332-1.202.543-1.82.778-.398.152-.77.324-1.078.636-.406.418-.52.989-.21 1.543.609 1.098.456 2.328-.403 3.305-.59.668-1.344.996-2.215 1.11-1.05.132-2.039-.051-2.988-.497-.074-.035-.153-.062-.25-.101M25.281 59.535c.176-.137.348-.25.535-.37.293.233.551.495.844.714 1.05.793 1.684 1.848 1.906 3.137.196 1.117-.28 1.949-1.12 2.66-.442.375-.81.851-1.165 1.316-.496.656-.785 1.426-1.105 2.18-.192.457-.684.89-1.156.836-.274-.031-.485-.145-.598-.39-.106-.24-.184-.49-.274-.731a1.4 1.4 0 0 0-.128-.274c-.223-.355-.477-.383-.786-.101-.12.105-.222.242-.359.312-.46.235-.89.121-1.297-.16-.617-.422-.855-1.055-1.023-1.742-.14-.586-.278-1.176-.625-1.695-.313-.465-.766-.723-1.266-.915-.508-.19-1.043-.242-1.586-.214-.973.054-1.832.394-2.558 1.054-.493.45-.872.977-1.098 1.649-.027-.055-.059-.09-.055-.117.192-.758.29-1.551.695-2.235a7.3 7.3 0 0 1 .895-1.246c.434-.473.926-.887 1.398-1.32.332-.301.72-.406 1.145-.254.535.195 1.066.41 1.598.613.48.184.96.356 1.437.543.652.254 1.313.496 1.676 1.176.144.273.297.547.492.781.25.301.633.387 1 .422.992.098 1.895-.164 2.711-.746a3.97 3.97 0 0 0 1.523-2.145c.153-.507-.078-.953-.496-1.152-.636-.3-1.023-.855-1.16-1.586m0 0"/><path style="stroke:none;fill-rule:nonzero;fill:#fec552;fill-opacity:1" d="M47.688 63.344c.355-.117.687-.239 1.019-.348.86-.281 1.711-.594 2.582-.832a3.45 3.45 0 0 1 2.531.273c.922.481 1.63 1.215 2.133 2.13.238.433.332.913.23 1.41-.109.535-.417.816-.976.601-.414-.16-.809-.379-1.234-.5a14 14 0 0 0-1.813-.39 7 7 0 0 0-1.387-.051c-.609.031-1.222.082-1.82.191-.95.176-1.894.367-2.824.621a8.5 8.5 0 0 0-3.18 1.649 7.6 7.6 0 0 0-1.676 1.906c-.351.566-.648 1.164-.742 1.836-.047.316-.11.629-.148.941-.028.192-.145.192-.278.156-.355-.097-.648-.449-.628-.82.015-.351.09-.699.136-1.047.035-.242.09-.48.106-.722.043-.672-.012-1.368.12-2.02.216-1.016.786-1.855 1.563-2.558a7 7 0 0 1 1.535-1.082c.391-.2.817-.36 1.247-.47.964-.25 1.941-.452 2.91-.683.195-.047.383-.125.593-.191M54.992 41.8c-.676.298-1.336.173-1.988-.01-.887-.247-1.75-.227-2.61.112a3.76 3.76 0 0 0-1.609 1.184 3.84 3.84 0 0 0-.812 2.11c-.051.675.18 1.273.414 1.878.136.352.261.715.175 1.106-.124.554-.519.867-1.015.984-.734.176-1.477-.164-1.707-.922-.113-.379-.028-.773.097-1.14a4 4 0 0 0 .176-1.536c-.062-.996-.18-1.992-.136-2.98.035-.832.367-1.617.836-2.328.406-.613.878-1.153 1.5-1.547.64-.406 1.32-.707 2.085-.82a5.64 5.64 0 0 1 2.676.23c.582.2 1.14.48 1.621.895.34.297.606.636.828 1.03.266.466.223 1.306-.304 1.602-.074.043-.14.098-.227.153m0 0"/><path style="stroke:none;fill-rule:nonzero;fill:#683606;fill-opacity:1" d="M60.293 47.988c.004.407 0 .785.004 1.168.008.84-.54 1.715-1.258 1.985-.59.222-1.16.101-1.719-.137-.617-.266-1.105-.707-1.597-1.149-.375-.34-.758-.675-1.157-.984-.558-.434-1.214-.594-1.91-.656-.562-.047-1.129-.086-1.68-.203-.84-.176-1.331-.758-1.617-1.555-.406-1.14.328-2.32 1.297-2.676.758-.281 1.535-.304 2.332-.25q1.319.09 2.57.473c1.184.363 2.337.793 3.317 1.586.762.613 1.3 1.367 1.418 2.398m-7.23-3.726c-.329.015-.657.015-.981.05-.75.086-1.348.586-1.539 1.258-.16.57.094 1.055.605 1.043.282-.008.567-.18.832-.312.215-.11.399-.29.606-.414.715-.434 1.5-.309 2.27-.278.37.012.734.094 1.105.11.117.004.332-.102.34-.172.011-.129-.094-.277-.156-.41-.012-.028-.055-.04-.083-.055-.921-.504-1.917-.727-3-.82m0 0"/><path style="stroke:none;fill-rule:nonzero;fill:#fec552;fill-opacity:1" d="M69.523 58.395a5.35 5.35 0 0 1-1.02-2.036 4.6 4.6 0 0 1-.151-.89c-.047-1.055.332-1.946 1.062-2.692.406-.414.852-.804 1.191-1.27.262-.362.426-.816.57-1.25.22-.648.313-1.343.653-1.952.414-.735.988-1.14 1.875-1.043.309.035.543.226.692.468.367.606.492 1.278.406 1.989-.055.465-.098.933-.172 1.398-.117.75-.508 1.36-1.09 1.824-.594.47-1.234.875-1.816 1.364-.57.476-.977 1.066-.946 1.87.016.41.227.72.485.997.285.308.605.59.914.875.394.367.472.836.422 1.344-.02.207-.328.488-.559.53a1.62 1.62 0 0 1-1.223-.241c-.515-.332-.921-.778-1.293-1.285m0 0"/><path style="stroke:none;fill-rule:nonzero;fill:#e2a258;fill-opacity:1" d="M29.516 35.848c1.062-.504 1.964-1.172 2.496-2.25l.07.023c-.02.313-.008.629-.07.93-.114.527-.23 1.058-.43 1.558-.246.63-.68 1.133-1.312 1.426-.504.235-.985.535-1.508.703-.696.227-1.422.383-2.145.524-.746.14-1.504.11-2.215-.157-.601-.222-1.164-.542-1.746-.82-.57-.27-1.133-.555-1.715-.793-.406-.168-.84-.187-1.285-.129a1.27 1.27 0 0 1-.683-.086c-.418-.191-.414-.62-.02-.863.52-.32 1.098-.465 1.7-.5.773-.047 1.538.043 2.3.219.961.222 1.926.453 2.899.625 1.156.203 2.308.172 3.406-.324.078-.036.16-.051.258-.086M84.723 55.21c.609-.612 1.164-1.245 1.593-1.976.352-.597.54-1.25.575-1.945.046-.996-.055-1.98-.442-2.906-.234-.551-.586-1.051-.855-1.59a8 8 0 0 1-.418-1.047c-.063-.187.035-.344.222-.43.196-.086.372-.043.5.114.204.246.407.5.582.761.73 1.086 1.446 2.176 2.168 3.262.422.629.793 1.281.946 2.027.238 1.168-.047 2.165-1.016 2.93-.562.445-1.195.746-1.84 1.035-.898.403-1.777.844-2.46 1.586-.38.414-.774.813-1.16 1.219l-.098-.05c.043-.243.035-.509.144-.716a16 16 0 0 1 .895-1.492c.183-.277.433-.512.664-.781m0 0"/><path style="stroke:none;fill-rule:nonzero;fill:#e2a358;fill-opacity:1" d="M42.813 38.766c.03-.95.28-1.782.921-2.493.582-.644 1.297-1.117 1.977-1.632.68-.512 1.285-1.09 1.703-1.844a5.5 5.5 0 0 0 .664-2.074c.086-.856.133-1.715.207-2.57.09-.981.387-1.891.969-2.7.215-.305.422-.617.68-.898-.086.465-.188.93-.258 1.402a24 24 0 0 0-.219 1.852 21 21 0 0 0-.05 1.925c.003.598.058 1.196.093 1.79.04.644-.187 1.203-.578 1.683-.52.64-1.074 1.254-1.61 1.883a8.2 8.2 0 0 1-2.097 1.758c-.352.207-.715.402-1.07.601-.301.172-.41.477-.458.781-.082.516-.117 1.036-.164 1.555-.07.754-.136 1.512-.199 2.266q-.08.944-.156 1.886c-.008.063-.016.126-.066.192-.012-.047-.032-.098-.036-.149-.05-.882-.097-1.765-.156-2.648-.043-.629-.105-1.258-.144-1.887-.012-.218.03-.437.047-.68m20.128 32.118c.52-.219 1.016-.438 1.524-.637 1.023-.41 1.953-.957 2.566-1.91.38-.598.68-1.25.707-1.98.02-.645.29-1.079.907-1.34.859-.364 1.687-.793 2.53-1.192.77-.363 1.54-.719 2.305-1.082.254-.12.5-.25.75-.375l.043.07c-.152.106-.296.231-.457.317-.472.258-.953.5-1.43.746-.831.434-1.695.813-2.374 1.496-.453.457-.723 1.012-.914 1.613-.223.715-.43 1.438-.657 2.153-.148.46-.32.918-.484 1.37-.11.298-.367.434-.637.528-.64.23-1.304.406-1.925.676a9.5 9.5 0 0 0-1.528.863 11.3 11.3 0 0 0-1.472 1.18 12 12 0 0 0-1.286 1.52c-.328.453-.578.96-.863 1.445-.02.035-.047.058-.11.14.114-.46.2-.859.31-1.25.226-.793.437-1.59.706-2.37a3.3 3.3 0 0 1 1.59-1.887c.059-.032.121-.055.2-.094m0 0"/><path style="stroke:none;fill-rule:nonzero;fill:#e2a258;fill-opacity:1" d="M78.238 30.46c-.175-.323-.383-.616-.492-.944a.725.725 0 0 1 .281-.836c.606-.442 1.305-.512 1.996-.313.426.125.735.477 1.024.832.394.488.71 1.008.797 1.633a3 3 0 0 1-.024.852 2.52 2.52 0 0 1-.992 1.644q-.181.137-.387.227c-.187.078-.375-.032-.449-.246-.125-.368-.23-.743-.37-1.102-.286-.71-.84-1.215-1.384-1.746M17.07 67.95c-.316.698-.726 1.288-1.394 1.667-.422.235-1.035.145-1.364-.226-.476-.547-.519-1.164-.328-1.84.23-.817.746-1.367 1.496-1.703.403-.18.829-.22 1.23.03.24.145.345.376.419.638.129.48.078.945-.059 1.433m-1.804 6.086c.472.102.82.317 1.015.77.395.925-.207 1.636-1.062 1.699-.742.05-1.465-.086-2.121-.484-.446-.27-.633-.782-.407-1.13.223-.343.547-.574.903-.742.242-.113.508-.16.761-.242.13-.043.204-.011.329.067.14.09.37.043.582.062m0 0"/><path style="stroke:none;fill-rule:nonzero;fill:#e2a358;fill-opacity:1" d="M84 26.922c-.562.14-1.105.09-1.637-.02-.48-.093-.855-.582-.843-1.027.011-.36.25-.582.515-.734.781-.453 1.938-.22 2.445.55.329.497.133 1.024-.48 1.23m0 0"/><path style="stroke:none;fill-rule:nonzero;fill:#8c5416;fill-opacity:1" d="M27.625 34.21q.112-.036.277-.05a1 1 0 0 1-.277.05m-1.773-.015a.3.3 0 0 1 .136-.008q-.05.022-.136.008m0 0"/><path style="stroke:none;fill-rule:nonzero;fill:#a26822;fill-opacity:1" d="M49.945 66.535q-.03.03-.093.035.03-.029.093-.035m-.351.047a.11.11 0 0 1-.082.031q.023-.03.082-.031m2.84-.055q-.03.017-.082.004c.02-.011.046-.015.082-.004m0 0"/><path style="stroke:none;fill-rule:nonzero;fill:#c78d50;fill-opacity:1" d="M5.414 73.348a.3.3 0 0 1-.094-.078c.032.007.059.035.094.078m0 0"/><path style="stroke:none;fill-rule:nonzero;fill:#a26822;fill-opacity:1" d="M48.723 66.742q-.019.025-.082.04.017-.023.082-.04m.257-.051q0 .02-.042.028 0-.023.042-.028m2.079-.246c0 .012-.016.016-.036.016.004-.008.012-.012.036-.016m0 0"/><path style="stroke:none;fill-rule:nonzero;fill:#8c5416;fill-opacity:1" d="M28.79 33.977q.005-.017.046-.028 0 .017-.047.028m0 0"/><path style="stroke:none;fill-rule:nonzero;fill:#ffde9c;fill-opacity:1" d="M9.879 25.59a5.2 5.2 0 0 1 1.836-1.766c.277-.156.586-.262.86-.422a25 25 0 0 0 1.238-.77c.351-.234.683-.491 1.03-.726.446-.3.95-.32 1.462-.281.297.023.422.32.215.563a28 28 0 0 1-1.254 1.355c-.614.629-1.254 1.227-1.848 1.875-.395.434-.777.895-1.074 1.398a10 10 0 0 0-.832 1.809c-.426 1.21-.524 2.48-.63 3.75a60 60 0 0 1-.41 3.64 7.8 7.8 0 0 1-.769 2.43c-.281.547-.687.961-1.375.934-.328-.016-.437-.11-.367-.418.133-.574.281-1.148.45-1.711.304-1.02.655-2.02.94-3.043.239-.871.286-1.77.215-2.668-.05-.644-.171-1.285-.27-1.926-.163-1.086-.237-2.168.18-3.218.106-.274.262-.528.403-.805m0 0"/><path style="stroke:none;fill-rule:nonzero;fill:#ffde9d;fill-opacity:1" d="M15.46 47.527c.571-.363 1.138-.695 1.79-.84.215-.05.46-.109.613.079.153.18.051.414-.058.593-.207.336-.407.688-.672.973-.922.98-1.574 2.121-2.043 3.379a5.3 5.3 0 0 1-.582 1.14c-.32.477-1.031.356-1.371.051-.364-.328-.742-.644-1.239-.757-1.023-.23-1.91.078-2.68.746-.597.523-.991 1.203-1.226 1.949-.254.808-.433 1.64-.64 2.465-.122.488-.29.965-.618 1.347-.382.45-.84.778-1.504.707-.023-.21-.05-.41-.058-.609-.024-.48-.07-.965-.047-1.441.082-1.63.32-3.223 1.098-4.692.82-1.543 1.972-2.722 3.652-3.277.762-.25 1.563-.39 2.352-.55.96-.196 1.898-.442 2.742-.966.156-.101.32-.191.492-.297m0 0"/><path style="stroke:none;fill-rule:nonzero;fill:#aa8c71;fill-opacity:1" d="M45.71 71.898a4.1 4.1 0 0 0-.573 2.047c-.004.27-.016.543-.055.809-.055.41-.223.754-.648.883-.446.136-.825-.024-1.118-.352-.828-.937-.91-2.488-.183-3.601.66-1.008 1.558-1.774 2.578-2.395.578-.348 1.18-.656 1.773-.977.57-.304 1.192-.417 1.825-.44a39 39 0 0 1 2.328-.013c.472.012.918.121 1.222.543.352.489.192 1.067-.375 1.282-.523.203-1.074.203-1.62.148-.712-.066-1.419-.09-2.134.008-1.347.183-2.308.914-3.02 2.058m0 0"/><path style="stroke:none;fill-rule:nonzero;fill:#aa8b71;fill-opacity:1" d="M79.727 50.45c-.133.585-.196 1.175-.399 1.714-.293.785-.82 1.434-1.453 1.98-.16.137-.41.211-.625.227-.473.031-.754-.348-.613-.805.066-.207.164-.414.293-.59.793-1.074 1.175-2.28 1.082-3.617-.086-1.265.48-2.203 1.41-2.964.68-.555 1.445-.708 2.277-.387.965.367 1.703.996 2.078 1.984.188.496.11.985-.191 1.426-.273.402-.695.55-1.156.39-.235-.081-.461-.206-.684-.324-1.023-.543-1.75-.203-2.02.965M60.531 20.21c-.375-.362-.476-.823-.543-1.3-.093-.668-.55-1.117-1.199-1.172-.277-.027-.504.047-.644.332-.192.399-.504.633-.965.598-.38-.031-.582-.25-.594-.629-.023-.89.516-1.57 1.46-1.809 1.165-.293 2.122.024 2.88.97.308.378.668.714 1.008 1.07.27.28.55.558.59.976.054.559-.165.984-.61 1.207-.488.246-.934.172-1.383-.242m0 0"/><path style="stroke:none;fill-rule:nonzero;fill:#aa8b70;fill-opacity:1" d="M26.738 28.059c-.25.484-.644.671-1.199.496-.48-.149-.93-.39-1.406-.563a2.5 2.5 0 0 0-.73-.168c-.676-.031-1.079.25-1.313.89-.145.407-.258.825-.414 1.224a1.8 1.8 0 0 1-.32.515c-.18.203-.419.332-.7.254-.265-.07-.379-.293-.445-.539a2.9 2.9 0 0 1-.027-1.36c.336-1.66 1.527-2.765 3.203-3.019.605-.094 1.207-.156 1.804.004.793.21 1.407.64 1.606 1.48.058.239-.027.512-.059.786m-5.066 22.058c.555.196 1.008.477 1.238 1.031.262.633-.09 1.352-.719 1.477-.289.055-.535-.059-.761-.215-.242-.164-.465-.36-.707-.531-.61-.438-1.262-.305-1.614.328-.21.375-.152.75.09 1.074.281.371.602.707.899 1.063.168.203.343.398.492.613.16.23.234.492.156.773-.058.223-.187.41-.422.465-.308.07-.558-.078-.777-.285a.8.8 0 0 1-.168-.219c-.328-.59-.809-1.035-1.34-1.433-1.02-.766-1.055-1.602-.602-2.672.43-1.016 1.243-1.516 2.317-1.64a4.7 4.7 0 0 1 1.918.171m0 0"/><path style="stroke:none;fill-rule:nonzero;fill:#a98b70;fill-opacity:1" d="M53.09 44.262c1.055.093 2.05.316 2.972.82.028.016.07.027.083.055.062.133.167.281.156.41-.008.07-.223.176-.34.172-.371-.016-.734-.098-1.106-.11-.77-.03-1.554-.156-2.27.278-.206.125-.39.304-.605.414-.265.133-.55.304-.832.312-.511.012-.765-.472-.605-1.043.191-.672.789-1.172 1.539-1.258.324-.035.652-.035 1.008-.05m0 0"/></svg>