<svg version="1.1" id="Layer_1" xmlns="http://www.w3.org/2000/svg" xmlns:xlink="http://www.w3.org/1999/xlink" x="0px" y="0px"
	 width="100%" viewBox="0 0 234 158" enable-background="new 0 0 234 158" xml:space="preserve">
<path fill="#10738E" opacity="1.000000" stroke="none" 
	d="
M169.000000,159.000000 
	C134.312439,159.000000 99.624878,159.000000 64.537125,158.625137 
	C68.000694,156.569275 71.887817,154.939774 75.724525,153.199142 
	C105.344757,139.761154 109.810211,98.145676 87.083809,80.298889 
	C80.242790,74.926720 72.034119,71.261894 64.335976,67.025703 
	C57.502171,63.265160 50.188229,60.289272 43.671982,56.063732 
	C36.883751,51.661816 35.071518,45.383331 37.031685,38.245392 
	C38.718052,32.104507 44.518902,27.165102 52.060856,27.191265 
	C58.769299,27.214539 65.605682,28.236797 72.133377,29.843121 
	C76.887901,31.013105 81.245407,33.822720 85.753471,35.957191 
	C88.104950,37.070564 91.049843,37.637028 91.404114,34.568775 
	C92.120926,28.360626 92.703728,21.882189 91.607094,15.829496 
	C91.077415,12.906008 86.619926,10.694168 83.706879,7.898133 
	C79.777374,6.548331 76.081886,5.460500 72.141205,4.387417 
	C71.563446,4.369539 71.255585,4.264528 70.680565,3.870006 
	C67.247757,3.357924 64.106789,3.062968 60.652039,2.796698 
	C59.922108,2.777341 59.505962,2.729299 59.081989,2.400659 
	C59.049442,1.746707 59.024723,1.373354 59.000000,1.000000 
	C117.597237,1.000000 176.194473,1.000000 234.895844,1.000000 
	C234.895844,53.666553 234.895844,106.333244 234.895874,158.999969 
	C223.243027,159.000000 211.590179,159.000000 199.685730,158.690170 
	C203.127823,157.390259 206.877060,156.569839 210.505676,155.381210 
	C227.647385,149.766144 230.664413,145.126160 229.070908,127.204216 
	C229.041412,126.872505 229.033112,126.538292 228.989960,126.208519 
	C228.300888,120.944092 226.390137,120.115860 221.584427,122.619293 
	C215.849075,125.607002 210.265152,129.358994 204.138275,131.037292 
	C180.986343,137.379120 160.549026,130.662079 153.550644,105.181892 
	C149.116318,89.037125 149.124847,72.537071 154.191025,56.386333 
	C161.595078,32.782394 182.686844,22.754627 205.624268,32.019951 
	C210.816223,34.117184 215.566849,37.338108 220.445419,40.171249 
	C225.266785,42.971165 227.498154,42.201653 228.337204,36.661793 
	C228.930435,32.744843 228.828552,28.705145 228.830505,24.720140 
	C228.833542,18.504456 226.032120,14.089619 220.440704,11.090022 
	C208.323715,4.589690 195.365402,2.103276 181.837814,3.123821 
	C157.125336,4.988177 137.914078,16.021486 126.776917,38.734097 
	C115.512329,61.706585 114.729515,86.018929 120.412422,110.446426 
	C126.113258,134.951004 140.710632,151.583313 166.047134,157.421341 
	C167.096924,157.663239 168.018631,158.461136 169.000000,159.000000 
z"/>
<path fill="#010203" opacity="1.000000" stroke="none" 
	d="
M59.089817,2.681257 
	C59.505962,2.729299 59.922108,2.777341 61.060196,2.900858 
	C64.845558,3.346600 67.908981,3.716866 70.972404,4.087132 
	C71.255585,4.264528 71.563446,4.369539 72.458923,4.594711 
	C76.661530,5.911540 80.301208,7.035822 83.940887,8.160104 
	C86.619926,10.694168 91.077415,12.906008 91.607094,15.829496 
	C92.703728,21.882189 92.120926,28.360626 91.404114,34.568775 
	C91.049843,37.637028 88.104950,37.070564 85.753471,35.957191 
	C81.245407,33.822720 76.887901,31.013105 72.133377,29.843121 
	C65.605682,28.236797 58.769299,27.214539 52.060856,27.191265 
	C44.518902,27.165102 38.718052,32.104507 37.031685,38.245392 
	C35.071518,45.383331 36.883751,51.661816 43.671982,56.063732 
	C50.188229,60.289272 57.502171,63.265160 64.335976,67.025703 
	C72.034119,71.261894 80.242790,74.926720 87.083809,80.298889 
	C109.810211,98.145676 105.344757,139.761154 75.724525,153.199142 
	C71.887817,154.939774 68.000694,156.569275 64.068466,158.625137 
	C52.312439,159.000000 40.624878,159.000000 28.364115,158.652252 
	C23.311005,156.707458 18.805113,155.179169 14.356696,153.498734 
	C5.626194,150.200653 0.222715,144.741058 1.960444,134.502213 
	C2.370097,132.088501 2.080403,129.556107 2.083383,127.062752 
	C2.054335,127.047203 2.079636,127.108047 2.384532,126.911392 
	C4.417893,122.045670 7.408119,122.132416 11.233191,124.212097 
	C15.078367,126.302704 19.091583,128.084244 23.107533,130.082947 
	C23.183905,130.164673 23.406925,130.147095 23.694141,130.395264 
	C25.648243,131.159790 27.315130,131.676132 28.964191,132.140259 
	C28.946363,132.088058 28.841972,132.123734 29.131172,132.368332 
	C33.958725,133.265793 38.497070,133.918655 43.462826,134.669189 
	C45.922211,134.650848 47.954189,134.534851 50.346977,134.445129 
	C53.045338,133.720139 55.382885,132.968903 57.770538,132.249741 
	C57.820637,132.281815 57.884823,132.181641 58.217445,132.154449 
	C59.082260,131.772552 59.614456,131.417862 60.107811,131.073853 
	C60.068966,131.084564 60.090378,131.162247 60.410927,131.091156 
	C61.898415,130.080750 63.065346,129.141434 64.201965,128.194809 
	C64.171646,128.187500 64.181328,128.249115 64.479500,128.102173 
	C65.348221,127.018967 65.918762,126.082695 66.404922,125.171570 
	C66.320541,125.196709 66.370834,125.365471 66.635300,125.105087 
	C67.536201,120.573860 68.172630,116.303017 68.806610,111.748474 
	C68.542442,110.973770 68.280724,110.482780 67.987930,109.659912 
	C66.943321,107.943192 65.929787,106.558334 64.916290,105.128067 
	C64.916313,105.082649 64.825485,105.082626 64.687500,104.798439 
	C63.401138,103.617599 62.252773,102.720947 61.100201,101.854782 
	C61.095993,101.885284 61.155441,101.869240 60.968052,101.585709 
	C57.950897,99.721123 55.121136,98.140060 52.282173,96.602585 
	C52.272968,96.646179 52.360157,96.664581 52.112991,96.422592 
	C49.937149,95.391006 48.008469,94.601418 46.086258,93.848480 
	C46.092720,93.885132 46.166023,93.872192 45.945503,93.621521 
	C44.492138,92.891167 43.259285,92.411469 42.025051,91.960571 
	C42.023666,91.989372 42.067001,91.951324 41.829475,91.705116 
	C39.060780,90.337029 36.529610,89.215157 33.977333,88.049767 
	C33.956230,88.006256 33.869213,88.048477 33.649628,87.822479 
	C32.292767,87.069672 31.155493,86.542854 30.016861,85.988281 
	C30.015503,85.960533 29.968634,85.990395 29.783747,85.755920 
	C29.054783,85.302650 28.510704,85.083855 28.005730,84.918823 
	C28.044832,84.972603 28.152374,84.894386 27.960476,84.646423 
	C26.849541,83.934258 25.930504,83.470062 25.012199,82.992363 
	C25.012930,82.978859 24.989294,82.992035 24.819263,82.735985 
	C23.773277,81.977531 22.897320,81.475121 22.010681,80.986496 
	C22.000000,81.000282 22.023664,80.974312 21.851089,80.717804 
	C20.825205,79.886589 19.971899,79.311890 19.124657,78.787735 
	C19.130722,78.838280 19.231813,78.826134 19.098103,78.540680 
	C18.014029,77.450867 17.063663,76.646492 16.078831,75.878830 
	C16.044361,75.915550 16.117802,75.984489 16.034130,75.713837 
	C15.637666,75.249855 15.324872,75.056511 15.044086,74.921951 
	C15.076097,74.980736 15.193648,74.916702 15.098730,74.618332 
	C14.423542,73.731689 13.843272,73.143433 13.279203,72.629593 
	C13.295403,72.704010 13.444239,72.671593 13.320452,72.365677 
	C12.162994,70.662003 11.129325,69.264252 10.084104,67.896530 
	C10.072552,67.926567 10.136156,67.936394 10.081004,67.594170 
	C9.061401,65.443748 8.096950,63.635548 7.083052,61.889359 
	C7.033605,61.951370 7.157631,62.050266 7.165820,61.686039 
	C6.794048,60.196453 6.414086,59.071091 6.012499,57.959663 
	C5.990873,57.973591 6.041968,57.977791 6.053922,57.548798 
	C3.421591,43.816387 5.567836,31.424463 13.081392,20.042194 
	C13.045609,20.023792 13.008812,20.095360 13.239109,19.987679 
	C13.629580,19.590805 13.789754,19.301613 14.222902,18.850739 
	C15.306665,17.718607 16.117453,16.748158 17.178772,15.668943 
	C17.910488,15.030004 18.391674,14.499830 19.111774,13.874133 
	C19.578732,13.528294 19.806772,13.277978 20.290134,12.947930 
	C20.739933,12.582665 20.934414,12.297132 21.077305,12.058071 
	C21.025713,12.104546 21.118666,12.207723 21.398840,12.131050 
	C22.117039,11.686081 22.555065,11.317784 23.290838,10.864100 
	C23.760214,10.663879 23.931841,10.549046 24.263428,10.418225 
	C24.639847,10.317458 24.782469,10.163980 24.884590,9.952133 
	C24.917921,9.962461 24.936794,9.895270 25.271763,9.819798 
	C27.400740,8.792246 29.194748,7.840167 31.267445,6.855520 
	C32.038048,6.568305 32.529961,6.313657 33.399990,6.056907 
	C35.874420,5.392575 37.970730,4.730345 40.050316,4.038754 
	C40.033585,4.009391 40.039970,4.076213 40.455841,4.101450 
	C43.590679,3.701976 46.309647,3.277265 49.418205,2.881734 
	C50.844166,2.835785 51.880543,2.760655 53.353897,2.759444 
	C55.557190,2.782661 57.323502,2.731959 59.089817,2.681257 
z"/>
<path fill="#000203" opacity="1.000000" stroke="none" 
	d="
M169.468658,159.000000 
	C168.018631,158.461136 167.096924,157.663239 166.047134,157.421341 
	C140.710632,151.583313 126.113258,134.951004 120.412422,110.446426 
	C114.729515,86.018929 115.512329,61.706585 126.776917,38.734097 
	C137.914078,16.021486 157.125336,4.988177 181.837814,3.123821 
	C195.365402,2.103276 208.323715,4.589690 220.440704,11.090022 
	C226.032120,14.089619 228.833542,18.504456 228.830505,24.720140 
	C228.828552,28.705145 228.930435,32.744843 228.337204,36.661793 
	C227.498154,42.201653 225.266785,42.971165 220.445419,40.171249 
	C215.566849,37.338108 210.816223,34.117184 205.624268,32.019951 
	C182.686844,22.754627 161.595078,32.782394 154.191025,56.386333 
	C149.124847,72.537071 149.116318,89.037125 153.550644,105.181892 
	C160.549026,130.662079 180.986343,137.379120 204.138275,131.037292 
	C210.265152,129.358994 215.849075,125.607002 221.584427,122.619293 
	C226.390137,120.115860 228.300888,120.944092 228.989960,126.208519 
	C229.033112,126.538292 229.041412,126.872505 229.070908,127.204216 
	C230.664413,145.126160 227.647385,149.766144 210.505676,155.381210 
	C206.877060,156.569839 203.127823,157.390259 199.217072,158.690170 
	C189.312439,159.000000 179.624878,159.000000 169.468658,159.000000 
z"/>
<path fill="#0F748F" opacity="1.000000" stroke="none" 
	d="
M49.986168,134.418869 
	C47.954189,134.534851 45.922211,134.650848 43.227901,134.418701 
	C37.991035,133.421631 33.416504,132.772690 28.841972,132.123749 
	C28.841972,132.123734 28.946363,132.088058 28.689541,131.885620 
	C26.757454,131.171158 25.082190,130.659119 23.406925,130.147095 
	C23.406925,130.147095 23.183905,130.164673 22.932156,129.794434 
	C18.427565,126.975487 14.364976,124.068596 9.870313,122.202240 
	C5.022921,120.189430 3.189079,121.677345 2.079636,127.108047 
	C2.079636,127.108047 2.054335,127.047203 1.805351,127.042191 
	C1.370911,127.024780 1.185455,127.012390 1.000000,127.000000 
	C1.000000,85.103462 1.000000,43.206924 1.000000,1.000000 
	C18.019636,1.000000 35.041161,1.000000 52.516502,1.280908 
	C52.952522,1.936386 52.934719,2.310956 52.916916,2.685525 
	C51.880543,2.760655 50.844166,2.835785 49.063026,2.769244 
	C45.558830,3.110454 42.799400,3.593333 40.039970,4.076213 
	C40.039970,4.076213 40.033585,4.009391 39.654186,4.015670 
	C37.190483,4.700968 35.106178,5.379989 33.021873,6.059009 
	C32.529961,6.313657 32.038048,6.568305 30.983124,6.806569 
	C28.592340,7.825213 26.764568,8.860242 24.936794,9.895270 
	C24.936794,9.895270 24.917921,9.962461 24.738708,10.000431 
	C24.371304,10.128672 24.219294,10.260609 24.103468,10.434213 
	C23.931841,10.549046 23.760214,10.663879 23.089476,10.869961 
	C22.099798,11.376714 21.609232,11.792218 21.118666,12.207723 
	C21.118666,12.207723 21.025713,12.104546 20.883596,12.215425 
	C20.487221,12.541244 20.251665,12.775030 20.034815,13.027662 
	C19.806772,13.277978 19.578732,13.528294 18.881168,14.011003 
	C17.917179,14.754835 17.422710,15.266272 16.928242,15.777709 
	C16.117453,16.748158 15.306665,17.718607 14.051323,19.016880 
	C13.387454,19.578993 13.188134,19.829210 13.008812,20.095360 
	C13.008812,20.095360 13.045609,20.023792 12.772123,20.187950 
	C11.742842,20.976748 10.804016,21.472349 10.258914,22.245531 
	C2.975871,32.575932 3.184388,44.190899 4.653410,55.981884 
	C4.742108,56.693798 5.562201,57.314594 6.041969,57.977791 
	C6.041968,57.977791 5.990873,57.973591 6.036322,58.316040 
	C6.440390,59.789078 6.799011,60.919674 7.157631,62.050266 
	C7.157631,62.050266 7.033605,61.951370 7.087240,62.270290 
	C8.139303,64.371605 9.137731,66.153999 10.136156,67.936394 
	C10.136156,67.936394 10.072552,67.926567 10.110952,68.261902 
	C11.247648,69.955353 12.345944,71.313469 13.444240,72.671593 
	C13.444239,72.671593 13.295403,72.704010 13.414762,72.912064 
	C14.087297,73.718971 14.640473,74.317841 15.193649,74.916702 
	C15.193648,74.916702 15.076097,74.980736 15.215731,75.121315 
	C15.609511,75.502762 15.863657,75.743622 16.117802,75.984489 
	C16.117802,75.984489 16.044361,75.915550 16.184525,76.190788 
	C17.293728,77.252724 18.262772,78.039429 19.231815,78.826134 
	C19.231813,78.826134 19.130722,78.838280 19.299530,79.053055 
	C20.320112,79.836647 21.171888,80.405479 22.023664,80.974312 
	C22.023664,80.974312 22.000000,81.000282 22.199211,81.228630 
	C23.262045,81.968658 24.125669,82.480347 24.989296,82.992035 
	C24.989294,82.992035 25.012930,82.978859 25.215485,83.228928 
	C26.329487,83.950790 27.240931,84.422585 28.152374,84.894386 
	C28.152374,84.894386 28.044832,84.972603 28.243595,85.082962 
	C28.951117,85.459015 29.459873,85.724709 29.968632,85.990395 
	C29.968634,85.990395 30.015503,85.960533 30.223343,86.229950 
	C31.577192,87.015732 32.723202,87.532104 33.869209,88.048477 
	C33.869213,88.048477 33.956230,88.006256 34.177933,88.313789 
	C36.955421,89.731323 39.511211,90.841324 42.067001,91.951324 
	C42.067001,91.951324 42.023666,91.989372 42.249725,92.208359 
	C43.705864,92.908958 44.935944,93.390572 46.166023,93.872192 
	C46.166023,93.872192 46.092720,93.885132 46.285316,94.133789 
	C48.438663,95.143150 50.399410,95.903862 52.360157,96.664581 
	C52.360157,96.664581 52.272968,96.646179 52.390640,96.940186 
	C55.390690,98.779213 58.273067,100.324226 61.155441,101.869240 
	C61.155441,101.869240 61.095993,101.885284 61.226315,102.155884 
	C62.512920,103.311867 63.669205,104.197243 64.825485,105.082626 
	C64.825485,105.082626 64.916313,105.082649 64.965500,105.468803 
	C66.016136,107.233902 67.017570,108.612846 68.019005,109.991791 
	C68.280724,110.482780 68.542442,110.973770 68.693130,112.116287 
	C67.845001,116.967041 67.107918,121.166252 66.370834,125.365471 
	C66.370834,125.365471 66.320541,125.196709 66.133118,125.369011 
	C65.357567,126.443916 64.769447,127.346512 64.181328,128.249115 
	C64.181328,128.249115 64.171646,128.187500 63.860939,128.246643 
	C62.396946,129.257950 61.243664,130.210098 60.090378,131.162247 
	C60.090378,131.162247 60.068966,131.084564 59.813240,131.187134 
	C58.999950,131.587021 58.442387,131.884338 57.884823,132.181641 
	C57.884823,132.181641 57.820637,132.281815 57.333466,132.223083 
	C54.559586,132.915863 52.272877,133.667374 49.986168,134.418869 
z"/>
<path fill="#146E86" opacity="1.000000" stroke="none" 
	d="
M1.000000,127.468658 
	C1.185455,127.012390 1.370911,127.024780 1.834399,127.057739 
	C2.080403,129.556107 2.370097,132.088501 1.960444,134.502213 
	C0.222715,144.741058 5.626194,150.200653 14.356696,153.498734 
	C18.805113,155.179169 23.311005,156.707458 27.895458,158.652252 
	C19.067280,159.000000 10.134559,159.000000 1.000000,159.000000 
	C1.000000,148.646652 1.000000,138.291977 1.000000,127.468658 
z"/>
<path fill="#196476" opacity="1.000000" stroke="none" 
	d="
M53.353897,2.759444 
	C52.934719,2.310956 52.952522,1.936386 52.985161,1.280908 
	C54.714184,1.000000 56.428371,1.000000 58.571278,1.000000 
	C59.024723,1.373354 59.049442,1.746707 59.081989,2.400659 
	C57.323502,2.731959 55.557190,2.782661 53.353897,2.759444 
z"/>
<path fill="#196476" opacity="1.000000" stroke="none" 
	d="
M83.706879,7.898133 
	C80.301208,7.035822 76.661530,5.911540 72.704124,4.579964 
	C76.081886,5.460500 79.777374,6.548331 83.706879,7.898133 
z"/>
<path fill="#196476" opacity="1.000000" stroke="none" 
	d="
M70.680565,3.870006 
	C67.908981,3.716866 64.845558,3.346600 61.373978,2.872173 
	C64.106789,3.062968 67.247757,3.357924 70.680565,3.870006 
z"/>
<path fill="#146E86" opacity="1.000000" stroke="none" 
	d="
M6.053923,57.548798 
	C5.562201,57.314594 4.742108,56.693798 4.653410,55.981884 
	C3.184388,44.190899 2.975871,32.575932 10.258914,22.245531 
	C10.804016,21.472349 11.742842,20.976748 12.807906,20.206352 
	C5.567836,31.424463 3.421591,43.816387 6.053923,57.548798 
z"/>
<path fill="#146E86" opacity="1.000000" stroke="none" 
	d="
M2.384532,126.911392 
	C3.189079,121.677345 5.022921,120.189430 9.870313,122.202240 
	C14.364976,124.068596 18.427565,126.975487 22.855783,129.712708 
	C19.091583,128.084244 15.078367,126.302704 11.233191,124.212097 
	C7.408119,122.132416 4.417893,122.045670 2.384532,126.911392 
z"/>
<path fill="#146E86" opacity="1.000000" stroke="none" 
	d="
M29.131172,132.368347 
	C33.416504,132.772690 37.991035,133.421631 42.800495,134.321045 
	C38.497070,133.918655 33.958725,133.265793 29.131172,132.368347 
z"/>
<path fill="#146E86" opacity="1.000000" stroke="none" 
	d="
M60.968052,101.585709 
	C58.273067,100.324226 55.390690,98.779213 52.399845,96.896599 
	C55.121136,98.140060 57.950897,99.721123 60.968052,101.585709 
z"/>
<path fill="#146E86" opacity="1.000000" stroke="none" 
	d="
M66.635300,125.105087 
	C67.107918,121.166252 67.845001,116.967041 68.695572,112.400002 
	C68.172630,116.303017 67.536201,120.573860 66.635300,125.105087 
z"/>
<path fill="#146E86" opacity="1.000000" stroke="none" 
	d="
M50.346977,134.445129 
	C52.272877,133.667374 54.559586,132.915863 57.283363,132.191010 
	C55.382885,132.968903 53.045338,133.720139 50.346977,134.445129 
z"/>
<path fill="#146E86" opacity="1.000000" stroke="none" 
	d="
M41.829475,91.705109 
	C39.511211,90.841324 36.955421,89.731323 34.199036,88.357300 
	C36.529610,89.215157 39.060780,90.337029 41.829475,91.705109 
z"/>
<path fill="#196476" opacity="1.000000" stroke="none" 
	d="
M40.455841,4.101450 
	C42.799400,3.593333 45.558830,3.110454 48.673439,2.740064 
	C46.309647,3.277265 43.590679,3.701976 40.455841,4.101450 
z"/>
<path fill="#196476" opacity="1.000000" stroke="none" 
	d="
M25.271763,9.819798 
	C26.764568,8.860242 28.592340,7.825213 30.704433,6.839136 
	C29.194748,7.840167 27.400740,8.792246 25.271763,9.819798 
z"/>
<path fill="#146E86" opacity="1.000000" stroke="none" 
	d="
M52.112991,96.422592 
	C50.399410,95.903862 48.438663,95.143150 46.278854,94.097130 
	C48.008469,94.601418 49.937149,95.391006 52.112991,96.422592 
z"/>
<path fill="#146E86" opacity="1.000000" stroke="none" 
	d="
M10.081005,67.594170 
	C9.137731,66.153999 8.139303,64.371605 7.136687,62.208279 
	C8.096950,63.635548 9.061401,65.443748 10.081005,67.594170 
z"/>
<path fill="#196476" opacity="1.000000" stroke="none" 
	d="
M33.399990,6.056907 
	C35.106178,5.379989 37.190483,4.700968 39.670914,4.045032 
	C37.970730,4.730345 35.874420,5.392575 33.399990,6.056907 
z"/>
<path fill="#146E86" opacity="1.000000" stroke="none" 
	d="
M67.987930,109.659912 
	C67.017570,108.612846 66.016136,107.233902 64.965477,105.514221 
	C65.929787,106.558334 66.943321,107.943192 67.987930,109.659912 
z"/>
<path fill="#146E86" opacity="1.000000" stroke="none" 
	d="
M13.320452,72.365677 
	C12.345944,71.313469 11.247648,69.955353 10.122503,68.231873 
	C11.129325,69.264252 12.162994,70.662003 13.320452,72.365677 
z"/>
<path fill="#146E86" opacity="1.000000" stroke="none" 
	d="
M60.410927,131.091156 
	C61.243664,130.210098 62.396946,129.257950 63.891258,128.253967 
	C63.065346,129.141434 61.898415,130.080750 60.410927,131.091156 
z"/>
<path fill="#146E86" opacity="1.000000" stroke="none" 
	d="
M64.687500,104.798439 
	C63.669205,104.197243 62.512920,103.311867 61.230522,102.125389 
	C62.252773,102.720947 63.401138,103.617599 64.687500,104.798439 
z"/>
<path fill="#146E86" opacity="1.000000" stroke="none" 
	d="
M23.694141,130.395264 
	C25.082190,130.659119 26.757454,131.171158 28.707367,131.937820 
	C27.315130,131.676132 25.648243,131.159790 23.694141,130.395264 
z"/>
<path fill="#146E86" opacity="1.000000" stroke="none" 
	d="
M19.098104,78.540680 
	C18.262772,78.039429 17.293728,77.252724 16.218992,76.154068 
	C17.063663,76.646492 18.014029,77.450867 19.098104,78.540680 
z"/>
<path fill="#146E86" opacity="1.000000" stroke="none" 
	d="
M33.649624,87.822479 
	C32.723202,87.532104 31.577192,87.015732 30.224703,86.257698 
	C31.155493,86.542854 32.292767,87.069672 33.649624,87.822479 
z"/>
<path fill="#146E86" opacity="1.000000" stroke="none" 
	d="
M45.945503,93.621521 
	C44.935944,93.390572 43.705864,92.908958 42.251110,92.179558 
	C43.259285,92.411469 44.492138,92.891167 45.945503,93.621521 
z"/>
<path fill="#146E86" opacity="1.000000" stroke="none" 
	d="
M21.851089,80.717804 
	C21.171888,80.405479 20.320112,79.836647 19.293465,79.002502 
	C19.971899,79.311890 20.825205,79.886589 21.851089,80.717804 
z"/>
<path fill="#146E86" opacity="1.000000" stroke="none" 
	d="
M24.819265,82.735985 
	C24.125669,82.480347 23.262045,81.968658 22.209892,81.214844 
	C22.897320,81.475121 23.773277,81.977531 24.819265,82.735985 
z"/>
<path fill="#146E86" opacity="1.000000" stroke="none" 
	d="
M27.960478,84.646423 
	C27.240931,84.422585 26.329487,83.950790 25.214754,83.242432 
	C25.930504,83.470062 26.849541,83.934258 27.960478,84.646423 
z"/>
<path fill="#146E86" opacity="1.000000" stroke="none" 
	d="
M64.479500,128.102173 
	C64.769447,127.346512 65.357567,126.443916 66.217499,125.343872 
	C65.918762,126.082695 65.348221,127.018967 64.479500,128.102173 
z"/>
<path fill="#146E86" opacity="1.000000" stroke="none" 
	d="
M7.165820,61.686039 
	C6.799011,60.919674 6.440390,59.789078 6.057948,58.302109 
	C6.414086,59.071091 6.794048,60.196453 7.165820,61.686039 
z"/>
<path fill="#146E86" opacity="1.000000" stroke="none" 
	d="
M15.098730,74.618332 
	C14.640473,74.317841 14.087297,73.718971 13.398562,72.837639 
	C13.843272,73.143433 14.423542,73.731689 15.098730,74.618332 
z"/>
<path fill="#146E86" opacity="1.000000" stroke="none" 
	d="
M21.398840,12.131050 
	C21.609232,11.792218 22.099798,11.376714 22.791727,10.955349 
	C22.555065,11.317784 22.117039,11.686081 21.398840,12.131050 
z"/>
<path fill="#146E86" opacity="1.000000" stroke="none" 
	d="
M17.178772,15.668943 
	C17.422710,15.266272 17.917179,14.754835 18.642254,14.106527 
	C18.391674,14.499830 17.910488,15.030004 17.178772,15.668943 
z"/>
<path fill="#146E86" opacity="1.000000" stroke="none" 
	d="
M58.217445,132.154449 
	C58.442387,131.884338 58.999950,131.587021 59.852081,131.176437 
	C59.614456,131.417862 59.082260,131.772552 58.217445,132.154449 
z"/>
<path fill="#146E86" opacity="1.000000" stroke="none" 
	d="
M29.783745,85.755920 
	C29.459873,85.724709 28.951117,85.459015 28.204493,85.029190 
	C28.510704,85.083855 29.054783,85.302650 29.783745,85.755920 
z"/>
<path fill="#196476" opacity="1.000000" stroke="none" 
	d="
M24.263428,10.418225 
	C24.219294,10.260609 24.371304,10.128672 24.705376,9.990104 
	C24.782469,10.163980 24.639847,10.317458 24.263428,10.418225 
z"/>
<path fill="#146E86" opacity="1.000000" stroke="none" 
	d="
M20.290134,12.947931 
	C20.251665,12.775030 20.487221,12.541244 20.935188,12.168951 
	C20.934414,12.297132 20.739933,12.582665 20.290134,12.947931 
z"/>
<path fill="#146E86" opacity="1.000000" stroke="none" 
	d="
M13.239109,19.987679 
	C13.188134,19.829210 13.387454,19.578993 13.778349,19.178562 
	C13.789754,19.301613 13.629580,19.590805 13.239109,19.987679 
z"/>
<path fill="#146E86" opacity="1.000000" stroke="none" 
	d="
M16.034130,75.713837 
	C15.863657,75.743622 15.609511,75.502762 15.183722,75.062531 
	C15.324872,75.056511 15.637666,75.249855 16.034130,75.713837 
z"/>
</svg>